<svg width="35" height="25" viewBox="0 0 35 25" fill="none" xmlns="http://www.w3.org/2000/svg">
<path d="M0.888475 2.68931C1.09718 1.53288 2.11028 0.722873 3.26621 0.788234L8.13942 1.06378C8.71373 1.09626 9.28394 1.19205 9.84006 1.34949L16.0557 3.10916L19.0942 4.08467C21.0136 4.70088 22.777 5.75355 24.2499 7.16242L26.8332 9.63337C27.0951 9.88388 27.2782 10.2078 27.3585 10.5629C27.7001 12.0719 26.1548 13.2646 24.8132 12.5275L14.9883 7.12916C14.3014 6.75176 13.5589 6.49455 12.792 6.36842L7.57112 5.50973C7.26544 5.45946 6.95635 5.43794 6.64776 5.44544L3.27092 5.52754C1.78081 5.56376 0.619416 4.18019 0.888475 2.68931Z" fill="white" fill-opacity="0.35"/>
<path d="M28.9417 19.6212C29.564 18.3907 30.9383 18.0759 32.0114 18.9181L33.3605 19.977C34.4336 20.8192 34.799 22.4994 34.1767 23.73C33.5544 24.9605 32.1801 25.2753 31.107 24.4331L29.7579 23.3743C28.6848 22.5321 28.3194 20.8518 28.9417 19.6212Z" fill="white" fill-opacity="0.35"/>
</svg>
