<svg width="1101" height="782" viewBox="0 0 1101 782" fill="none" xmlns="http://www.w3.org/2000/svg">
<g filter="url(#filter0_d_2686_38)">
<rect x="41" y="155" width="1007" height="619" rx="52" fill="#1565FF"/>
<rect x="4" y="67" width="1093" height="671.944" rx="30" fill="#4A88FF"/>
<g filter="url(#filter1_i_2686_38)">
<path d="M50 139C50 122.431 63.4315 109 80 109H1016C1032.57 109 1046 122.431 1046 139V675C1046 691.569 1032.57 705 1016 705H80C63.4315 705 50 691.569 50 675V139Z" fill="#98BBFF"/>
</g>
<g filter="url(#filter2_d_2686_38)">
<mask id="path-4-outside-1_2686_38" maskUnits="userSpaceOnUse" x="360" y="4" width="388" height="198" fill="black">
<rect fill="white" x="360" y="4" width="388" height="198"/>
<path d="M434.703 74.3886L442.188 42.466C442.188 42.466 442.453 41.4512 442.984 39.4217C443.655 37.3672 445.246 35.15 447.757 32.7702C450.409 30.3653 454.717 28.7095 460.682 27.8029C466.622 26.7518 470.695 27.1477 472.901 28.9908C475.224 30.6643 476.347 32.9968 476.271 35.9881C476.312 38.8099 475.833 41.5747 474.835 44.2826C474.232 45.8784 473.092 48.6113 471.417 52.4812C469.883 56.3261 468.14 60.6548 466.187 65.4672C464.234 70.2796 462.328 74.935 460.468 79.4332C458.583 83.7869 457.012 87.415 455.756 90.3175C454.641 93.1949 454.083 94.6336 454.083 94.6336L499.915 139.456C499.915 139.456 500.366 139.972 501.269 141.003C502.148 141.89 502.734 143.201 503.028 144.936C503.463 146.645 502.979 148.518 501.576 150.553C500.314 152.563 497.459 154.631 493.012 156.758C488.565 158.885 484.547 159.671 480.956 159.115C477.507 158.534 474.551 157.419 472.087 155.771C469.598 153.978 467.711 152.302 466.428 150.742C465.144 149.182 464.502 148.403 464.502 148.403L446.998 122.465L441.394 155.172C441.394 155.172 441.15 155.885 440.663 157.311C440.152 158.593 438.663 160.122 436.196 161.899C433.871 163.65 429.879 165.026 424.222 166.028C418.564 167.029 414.433 166.717 411.827 165.094C409.338 163.301 407.874 161.103 407.433 158.501C406.968 155.755 407.071 153.354 407.743 151.299C408.112 150.043 409.006 147.577 410.423 143.902C411.815 140.082 413.417 135.778 415.228 130.991C417.039 126.203 418.804 121.573 420.523 117.1C422.218 112.482 423.622 108.734 424.737 105.857C425.969 102.81 426.585 101.286 426.585 101.286L387.547 61.7387C387.547 61.7387 387.013 61.1633 385.944 60.0124C385.016 58.8364 384.393 57.3088 384.075 55.4295C383.757 53.5502 384.453 51.6402 386.164 49.6996C387.874 47.759 391.439 46.0116 396.857 44.4573C401.451 43.1977 405.331 42.8833 408.497 43.5143C411.638 44.0006 414.134 44.9735 415.983 46.433C417.95 47.7229 419.326 48.9683 420.112 50.1692C421.04 51.3452 421.504 51.9331 421.504 51.9331L434.703 74.3886Z"/>
<path d="M552.89 56.3612C557.434 59.2047 560.401 62.1429 561.789 65.176C563.178 68.209 564.02 70.017 564.315 70.5999C565.051 72.0572 565.63 73.4873 566.05 74.8901C566.586 76.3795 566.854 77.1241 566.854 77.1241C566.854 77.1241 567.512 78.0689 568.829 79.9585C570.145 81.848 571.16 84.7835 571.872 88.7648C572.669 92.6275 572.403 97.6052 571.075 103.698C569.748 109.79 566.424 116.937 561.104 125.138C557.53 130.644 553.504 134.543 549.026 136.834C544.633 139.007 540.025 140.111 535.202 140.147C530.58 140.151 526.006 139.465 521.48 138.089C517.155 136.68 513.2 135.002 509.615 133.056C506.146 131.195 503.325 129.546 501.153 128.108C499.097 126.757 498.069 126.082 498.069 126.082C498.069 126.082 496.909 125.217 494.59 123.488C492.387 121.845 489.857 119.414 487.002 116.196C484.231 112.859 481.968 108.81 480.212 104.051C478.657 99.2593 478.385 93.7901 479.396 87.6432C480.523 81.5828 483.867 74.9054 489.428 67.6109C494.989 60.3165 500.679 55.2065 506.498 52.281C512.518 49.3235 518.24 47.7785 523.664 47.6462C529.205 47.6003 534.137 48.2817 538.462 49.6902C542.903 51.1852 546.368 52.6788 548.856 54.171C551.545 55.6311 552.89 56.3612 552.89 56.3612ZM541.151 74.3038C541.151 74.3038 539.72 74.69 536.859 75.4625C534.114 76.3214 530.761 77.9076 526.801 80.2209C522.956 82.6207 519.384 86.132 516.085 90.7546C512.871 95.2588 510.855 99.2037 510.037 102.59C509.22 105.975 508.968 108.693 509.282 110.743C509.796 112.761 510.401 114.029 511.097 114.548C511.793 115.067 513.106 115.592 515.037 116.123C517.168 116.622 519.717 116.162 522.684 114.743C525.652 113.323 528.896 110.022 532.418 104.839C535.347 100.485 537.336 96.702 538.385 93.4891C539.551 90.3627 540.214 87.3165 540.377 84.3504C540.74 81.3522 540.998 78.0034 541.151 74.3038Z"/>
<path d="M690.151 83.4988C695.409 84.3796 699.241 85.9567 701.647 88.23C704.053 90.5033 705.499 91.8531 705.988 92.2792C707.208 93.3447 708.271 94.446 709.178 95.5832C710.225 96.7557 710.748 97.3419 710.748 97.3419C710.748 97.3419 711.706 97.963 713.623 99.2053C715.539 100.447 717.562 102.775 719.691 106.187C721.855 109.457 723.447 114.169 724.466 120.324C725.485 126.478 725.045 134.378 723.146 144.024C721.868 150.503 719.579 155.666 716.278 159.515C713.011 163.221 709.151 166.02 704.698 167.914C700.419 169.7 695.93 170.828 691.231 171.299C686.706 171.662 682.424 171.634 678.385 171.213C674.485 170.829 671.264 170.389 668.722 169.895C666.319 169.437 665.118 169.207 665.118 169.207C665.118 169.207 663.725 168.854 660.938 168.147C658.292 167.475 655.052 166.2 651.219 164.32C647.422 162.298 643.831 159.422 640.448 155.691C637.239 151.854 634.969 146.894 633.636 140.811C632.443 134.764 633.075 127.29 635.532 118.39C637.99 109.49 641.373 102.564 645.682 97.6106C650.165 92.5503 654.894 88.9129 659.868 86.6984C664.983 84.5193 669.802 83.2481 674.327 82.8847C678.992 82.5566 682.752 82.6038 685.607 83.026C688.636 83.3412 690.151 83.4988 690.151 83.4988ZM685.903 104.642C685.903 104.642 684.72 105.552 682.356 107.37C680.131 109.224 677.611 111.986 674.797 115.656C672.123 119.361 670.111 123.99 668.762 129.544C667.448 134.955 667.037 139.385 667.53 142.836C668.023 146.287 668.793 148.901 669.84 150.678C671.061 152.349 672.09 153.29 672.926 153.502C673.761 153.714 675.171 153.694 677.155 153.442C679.313 153.082 681.504 151.673 683.728 149.214C685.952 146.755 687.738 142.447 689.086 136.288C690.192 131.127 690.638 126.856 690.424 123.476C690.349 120.131 689.839 117.054 688.894 114.245C688.124 111.328 687.127 108.127 685.903 104.642Z"/>
<path d="M614.701 75.7532L638.629 53.857C638.629 53.857 639.412 53.1768 640.978 51.8164C642.674 50.5177 645.217 49.62 648.606 49.1232C652.126 48.688 656.59 49.8324 662 52.5563C667.469 55.1471 670.598 57.8418 671.386 60.6404C672.365 63.3676 671.99 65.939 670.262 68.3546C668.724 70.6987 666.792 72.6939 664.463 74.34C663.078 75.301 660.62 76.8855 657.088 79.0933C653.686 81.3628 649.842 83.9083 645.557 86.7297C641.272 89.5512 637.113 92.2704 633.079 94.8873C629.105 97.3711 625.794 99.4409 623.145 101.097C620.626 102.814 619.366 103.673 619.366 103.673L632.099 167.188C632.099 167.188 632.183 167.875 632.351 169.248C632.58 170.488 632.332 171.907 631.608 173.505C631.014 175.164 629.574 176.422 627.287 177.279C625.13 178.198 621.631 178.238 616.79 177.401C611.949 176.563 608.207 174.872 605.564 172.327C603.052 169.843 601.241 167.207 600.132 164.418C599.084 161.496 598.466 159.02 598.279 156.991C598.091 154.962 597.998 153.947 597.998 153.947L598.045 122.438L575.227 146.073C575.227 146.073 574.63 146.517 573.436 147.407C572.302 148.164 570.226 148.555 567.208 148.581C564.321 148.669 560.273 147.479 555.063 145.011C549.854 142.544 546.63 139.885 545.391 137.034C544.343 134.112 544.362 131.453 545.448 129.057C546.595 126.528 548.016 124.614 549.712 123.315C550.716 122.497 552.823 120.989 556.035 118.791C559.306 116.46 563.02 113.853 567.174 110.969C571.329 108.086 575.358 105.305 579.262 102.627C583.226 99.8151 586.468 97.5505 588.987 95.8329C591.696 94.0439 593.051 93.1494 593.051 93.1494L582.968 37.9233C582.968 37.9233 582.849 37.1392 582.611 35.571C582.503 34.0646 582.841 32.4461 583.625 30.7156C584.41 28.9851 586.046 27.8195 588.533 27.2188C591.02 26.6181 594.924 27.2544 600.244 29.1276C604.723 30.7639 608.089 32.7622 610.341 35.1225C612.653 37.3497 614.164 39.6012 614.872 41.8771C615.771 44.0816 616.21 45.9063 616.187 47.3511C616.295 48.8575 616.349 49.6108 616.349 49.6108L614.701 75.7532Z"/>
</mask>
<path d="M434.703 74.3886L442.188 42.466C442.188 42.466 442.453 41.4512 442.984 39.4217C443.655 37.3672 445.246 35.15 447.757 32.7702C450.409 30.3653 454.717 28.7095 460.682 27.8029C466.622 26.7518 470.695 27.1477 472.901 28.9908C475.224 30.6643 476.347 32.9968 476.271 35.9881C476.312 38.8099 475.833 41.5747 474.835 44.2826C474.232 45.8784 473.092 48.6113 471.417 52.4812C469.883 56.3261 468.14 60.6548 466.187 65.4672C464.234 70.2796 462.328 74.935 460.468 79.4332C458.583 83.7869 457.012 87.415 455.756 90.3175C454.641 93.1949 454.083 94.6336 454.083 94.6336L499.915 139.456C499.915 139.456 500.366 139.972 501.269 141.003C502.148 141.89 502.734 143.201 503.028 144.936C503.463 146.645 502.979 148.518 501.576 150.553C500.314 152.563 497.459 154.631 493.012 156.758C488.565 158.885 484.547 159.671 480.956 159.115C477.507 158.534 474.551 157.419 472.087 155.771C469.598 153.978 467.711 152.302 466.428 150.742C465.144 149.182 464.502 148.403 464.502 148.403L446.998 122.465L441.394 155.172C441.394 155.172 441.15 155.885 440.663 157.311C440.152 158.593 438.663 160.122 436.196 161.899C433.871 163.65 429.879 165.026 424.222 166.028C418.564 167.029 414.433 166.717 411.827 165.094C409.338 163.301 407.874 161.103 407.433 158.501C406.968 155.755 407.071 153.354 407.743 151.299C408.112 150.043 409.006 147.577 410.423 143.902C411.815 140.082 413.417 135.778 415.228 130.991C417.039 126.203 418.804 121.573 420.523 117.1C422.218 112.482 423.622 108.734 424.737 105.857C425.969 102.81 426.585 101.286 426.585 101.286L387.547 61.7387C387.547 61.7387 387.013 61.1633 385.944 60.0124C385.016 58.8364 384.393 57.3088 384.075 55.4295C383.757 53.5502 384.453 51.6402 386.164 49.6996C387.874 47.759 391.439 46.0116 396.857 44.4573C401.451 43.1977 405.331 42.8833 408.497 43.5143C411.638 44.0006 414.134 44.9735 415.983 46.433C417.95 47.7229 419.326 48.9683 420.112 50.1692C421.04 51.3452 421.504 51.9331 421.504 51.9331L434.703 74.3886Z" fill="#4A88FF"/>
<path d="M552.89 56.3612C557.434 59.2047 560.401 62.1429 561.789 65.176C563.178 68.209 564.02 70.017 564.315 70.5999C565.051 72.0572 565.63 73.4873 566.05 74.8901C566.586 76.3795 566.854 77.1241 566.854 77.1241C566.854 77.1241 567.512 78.0689 568.829 79.9585C570.145 81.848 571.16 84.7835 571.872 88.7648C572.669 92.6275 572.403 97.6052 571.075 103.698C569.748 109.79 566.424 116.937 561.104 125.138C557.53 130.644 553.504 134.543 549.026 136.834C544.633 139.007 540.025 140.111 535.202 140.147C530.58 140.151 526.006 139.465 521.48 138.089C517.155 136.68 513.2 135.002 509.615 133.056C506.146 131.195 503.325 129.546 501.153 128.108C499.097 126.757 498.069 126.082 498.069 126.082C498.069 126.082 496.909 125.217 494.59 123.488C492.387 121.845 489.857 119.414 487.002 116.196C484.231 112.859 481.968 108.81 480.212 104.051C478.657 99.2593 478.385 93.7901 479.396 87.6432C480.523 81.5828 483.867 74.9054 489.428 67.6109C494.989 60.3165 500.679 55.2065 506.498 52.281C512.518 49.3235 518.24 47.7785 523.664 47.6462C529.205 47.6003 534.137 48.2817 538.462 49.6902C542.903 51.1852 546.368 52.6788 548.856 54.171C551.545 55.6311 552.89 56.3612 552.89 56.3612ZM541.151 74.3038C541.151 74.3038 539.72 74.69 536.859 75.4625C534.114 76.3214 530.761 77.9076 526.801 80.2209C522.956 82.6207 519.384 86.132 516.085 90.7546C512.871 95.2588 510.855 99.2037 510.037 102.59C509.22 105.975 508.968 108.693 509.282 110.743C509.796 112.761 510.401 114.029 511.097 114.548C511.793 115.067 513.106 115.592 515.037 116.123C517.168 116.622 519.717 116.162 522.684 114.743C525.652 113.323 528.896 110.022 532.418 104.839C535.347 100.485 537.336 96.702 538.385 93.4891C539.551 90.3627 540.214 87.3165 540.377 84.3504C540.74 81.3522 540.998 78.0034 541.151 74.3038Z" fill="#FFC121"/>
<path d="M690.151 83.4988C695.409 84.3796 699.241 85.9567 701.647 88.23C704.053 90.5033 705.499 91.8531 705.988 92.2792C707.208 93.3447 708.271 94.446 709.178 95.5832C710.225 96.7557 710.748 97.3419 710.748 97.3419C710.748 97.3419 711.706 97.963 713.623 99.2053C715.539 100.447 717.562 102.775 719.691 106.187C721.855 109.457 723.447 114.169 724.466 120.324C725.485 126.478 725.045 134.378 723.146 144.024C721.868 150.503 719.579 155.666 716.278 159.515C713.011 163.221 709.151 166.02 704.698 167.914C700.419 169.7 695.93 170.828 691.231 171.299C686.706 171.662 682.424 171.634 678.385 171.213C674.485 170.829 671.264 170.389 668.722 169.895C666.319 169.437 665.118 169.207 665.118 169.207C665.118 169.207 663.725 168.854 660.938 168.147C658.292 167.475 655.052 166.2 651.219 164.32C647.422 162.298 643.831 159.422 640.448 155.691C637.239 151.854 634.969 146.894 633.636 140.811C632.443 134.764 633.075 127.29 635.532 118.39C637.99 109.49 641.373 102.564 645.682 97.6106C650.165 92.5503 654.894 88.9129 659.868 86.6984C664.983 84.5193 669.802 83.2481 674.327 82.8847C678.992 82.5566 682.752 82.6038 685.607 83.026C688.636 83.3412 690.151 83.4988 690.151 83.4988ZM685.903 104.642C685.903 104.642 684.72 105.552 682.356 107.37C680.131 109.224 677.611 111.986 674.797 115.656C672.123 119.361 670.111 123.99 668.762 129.544C667.448 134.955 667.037 139.385 667.53 142.836C668.023 146.287 668.793 148.901 669.84 150.678C671.061 152.349 672.09 153.29 672.926 153.502C673.761 153.714 675.171 153.694 677.155 153.442C679.313 153.082 681.504 151.673 683.728 149.214C685.952 146.755 687.738 142.447 689.086 136.288C690.192 131.127 690.638 126.856 690.424 123.476C690.349 120.131 689.839 117.054 688.894 114.245C688.124 111.328 687.127 108.127 685.903 104.642Z" fill="#FFC121"/>
<path d="M614.701 75.7532L638.629 53.857C638.629 53.857 639.412 53.1768 640.978 51.8164C642.674 50.5177 645.217 49.62 648.606 49.1232C652.126 48.688 656.59 49.8324 662 52.5563C667.469 55.1471 670.598 57.8418 671.386 60.6404C672.365 63.3676 671.99 65.939 670.262 68.3546C668.724 70.6987 666.792 72.6939 664.463 74.34C663.078 75.301 660.62 76.8855 657.088 79.0933C653.686 81.3628 649.842 83.9083 645.557 86.7297C641.272 89.5512 637.113 92.2704 633.079 94.8873C629.105 97.3711 625.794 99.4409 623.145 101.097C620.626 102.814 619.366 103.673 619.366 103.673L632.099 167.188C632.099 167.188 632.183 167.875 632.351 169.248C632.58 170.488 632.332 171.907 631.608 173.505C631.014 175.164 629.574 176.422 627.287 177.279C625.13 178.198 621.631 178.238 616.79 177.401C611.949 176.563 608.207 174.872 605.564 172.327C603.052 169.843 601.241 167.207 600.132 164.418C599.084 161.496 598.466 159.02 598.279 156.991C598.091 154.962 597.998 153.947 597.998 153.947L598.045 122.438L575.227 146.073C575.227 146.073 574.63 146.517 573.436 147.407C572.302 148.164 570.226 148.555 567.208 148.581C564.321 148.669 560.273 147.479 555.063 145.011C549.854 142.544 546.63 139.885 545.391 137.034C544.343 134.112 544.362 131.453 545.448 129.057C546.595 126.528 548.016 124.614 549.712 123.315C550.716 122.497 552.823 120.989 556.035 118.791C559.306 116.46 563.02 113.853 567.174 110.969C571.329 108.086 575.358 105.305 579.262 102.627C583.226 99.8151 586.468 97.5505 588.987 95.8329C591.696 94.0439 593.051 93.1494 593.051 93.1494L582.968 37.9233C582.968 37.9233 582.849 37.1392 582.611 35.571C582.503 34.0646 582.841 32.4461 583.625 30.7156C584.41 28.9851 586.046 27.8195 588.533 27.2188C591.02 26.6181 594.924 27.2544 600.244 29.1276C604.723 30.7639 608.089 32.7622 610.341 35.1225C612.653 37.3497 614.164 39.6012 614.872 41.8771C615.771 44.0816 616.21 45.9063 616.187 47.3511C616.295 48.8575 616.349 49.6108 616.349 49.6108L614.701 75.7532Z" fill="#4A88FF"/>
<path d="M434.703 74.3886L442.188 42.466C442.188 42.466 442.453 41.4512 442.984 39.4217C443.655 37.3672 445.246 35.15 447.757 32.7702C450.409 30.3653 454.717 28.7095 460.682 27.8029C466.622 26.7518 470.695 27.1477 472.901 28.9908C475.224 30.6643 476.347 32.9968 476.271 35.9881C476.312 38.8099 475.833 41.5747 474.835 44.2826C474.232 45.8784 473.092 48.6113 471.417 52.4812C469.883 56.3261 468.14 60.6548 466.187 65.4672C464.234 70.2796 462.328 74.935 460.468 79.4332C458.583 83.7869 457.012 87.415 455.756 90.3175C454.641 93.1949 454.083 94.6336 454.083 94.6336L499.915 139.456C499.915 139.456 500.366 139.972 501.269 141.003C502.148 141.89 502.734 143.201 503.028 144.936C503.463 146.645 502.979 148.518 501.576 150.553C500.314 152.563 497.459 154.631 493.012 156.758C488.565 158.885 484.547 159.671 480.956 159.115C477.507 158.534 474.551 157.419 472.087 155.771C469.598 153.978 467.711 152.302 466.428 150.742C465.144 149.182 464.502 148.403 464.502 148.403L446.998 122.465L441.394 155.172C441.394 155.172 441.15 155.885 440.663 157.311C440.152 158.593 438.663 160.122 436.196 161.899C433.871 163.65 429.879 165.026 424.222 166.028C418.564 167.029 414.433 166.717 411.827 165.094C409.338 163.301 407.874 161.103 407.433 158.501C406.968 155.755 407.071 153.354 407.743 151.299C408.112 150.043 409.006 147.577 410.423 143.902C411.815 140.082 413.417 135.778 415.228 130.991C417.039 126.203 418.804 121.573 420.523 117.1C422.218 112.482 423.622 108.734 424.737 105.857C425.969 102.81 426.585 101.286 426.585 101.286L387.547 61.7387C387.547 61.7387 387.013 61.1633 385.944 60.0124C385.016 58.8364 384.393 57.3088 384.075 55.4295C383.757 53.5502 384.453 51.6402 386.164 49.6996C387.874 47.759 391.439 46.0116 396.857 44.4573C401.451 43.1977 405.331 42.8833 408.497 43.5143C411.638 44.0006 414.134 44.9735 415.983 46.433C417.95 47.7229 419.326 48.9683 420.112 50.1692C421.04 51.3452 421.504 51.9331 421.504 51.9331L434.703 74.3886Z" stroke="white" stroke-width="46" mask="url(#path-4-outside-1_2686_38)"/>
<path d="M552.89 56.3612C557.434 59.2047 560.401 62.1429 561.789 65.176C563.178 68.209 564.02 70.017 564.315 70.5999C565.051 72.0572 565.63 73.4873 566.05 74.8901C566.586 76.3795 566.854 77.1241 566.854 77.1241C566.854 77.1241 567.512 78.0689 568.829 79.9585C570.145 81.848 571.16 84.7835 571.872 88.7648C572.669 92.6275 572.403 97.6052 571.075 103.698C569.748 109.79 566.424 116.937 561.104 125.138C557.53 130.644 553.504 134.543 549.026 136.834C544.633 139.007 540.025 140.111 535.202 140.147C530.58 140.151 526.006 139.465 521.48 138.089C517.155 136.68 513.2 135.002 509.615 133.056C506.146 131.195 503.325 129.546 501.153 128.108C499.097 126.757 498.069 126.082 498.069 126.082C498.069 126.082 496.909 125.217 494.59 123.488C492.387 121.845 489.857 119.414 487.002 116.196C484.231 112.859 481.968 108.81 480.212 104.051C478.657 99.2593 478.385 93.7901 479.396 87.6432C480.523 81.5828 483.867 74.9054 489.428 67.6109C494.989 60.3165 500.679 55.2065 506.498 52.281C512.518 49.3235 518.24 47.7785 523.664 47.6462C529.205 47.6003 534.137 48.2817 538.462 49.6902C542.903 51.1852 546.368 52.6788 548.856 54.171C551.545 55.6311 552.89 56.3612 552.89 56.3612ZM541.151 74.3038C541.151 74.3038 539.72 74.69 536.859 75.4625C534.114 76.3214 530.761 77.9076 526.801 80.2209C522.956 82.6207 519.384 86.132 516.085 90.7546C512.871 95.2588 510.855 99.2037 510.037 102.59C509.22 105.975 508.968 108.693 509.282 110.743C509.796 112.761 510.401 114.029 511.097 114.548C511.793 115.067 513.106 115.592 515.037 116.123C517.168 116.622 519.717 116.162 522.684 114.743C525.652 113.323 528.896 110.022 532.418 104.839C535.347 100.485 537.336 96.702 538.385 93.4891C539.551 90.3627 540.214 87.3165 540.377 84.3504C540.74 81.3522 540.998 78.0034 541.151 74.3038Z" stroke="white" stroke-width="46" mask="url(#path-4-outside-1_2686_38)"/>
<path d="M690.151 83.4988C695.409 84.3796 699.241 85.9567 701.647 88.23C704.053 90.5033 705.499 91.8531 705.988 92.2792C707.208 93.3447 708.271 94.446 709.178 95.5832C710.225 96.7557 710.748 97.3419 710.748 97.3419C710.748 97.3419 711.706 97.963 713.623 99.2053C715.539 100.447 717.562 102.775 719.691 106.187C721.855 109.457 723.447 114.169 724.466 120.324C725.485 126.478 725.045 134.378 723.146 144.024C721.868 150.503 719.579 155.666 716.278 159.515C713.011 163.221 709.151 166.02 704.698 167.914C700.419 169.7 695.93 170.828 691.231 171.299C686.706 171.662 682.424 171.634 678.385 171.213C674.485 170.829 671.264 170.389 668.722 169.895C666.319 169.437 665.118 169.207 665.118 169.207C665.118 169.207 663.725 168.854 660.938 168.147C658.292 167.475 655.052 166.2 651.219 164.32C647.422 162.298 643.831 159.422 640.448 155.691C637.239 151.854 634.969 146.894 633.636 140.811C632.443 134.764 633.075 127.29 635.532 118.39C637.99 109.49 641.373 102.564 645.682 97.6106C650.165 92.5503 654.894 88.9129 659.868 86.6984C664.983 84.5193 669.802 83.2481 674.327 82.8847C678.992 82.5566 682.752 82.6038 685.607 83.026C688.636 83.3412 690.151 83.4988 690.151 83.4988ZM685.903 104.642C685.903 104.642 684.72 105.552 682.356 107.37C680.131 109.224 677.611 111.986 674.797 115.656C672.123 119.361 670.111 123.99 668.762 129.544C667.448 134.955 667.037 139.385 667.53 142.836C668.023 146.287 668.793 148.901 669.84 150.678C671.061 152.349 672.09 153.29 672.926 153.502C673.761 153.714 675.171 153.694 677.155 153.442C679.313 153.082 681.504 151.673 683.728 149.214C685.952 146.755 687.738 142.447 689.086 136.288C690.192 131.127 690.638 126.856 690.424 123.476C690.349 120.131 689.839 117.054 688.894 114.245C688.124 111.328 687.127 108.127 685.903 104.642Z" stroke="white" stroke-width="46" mask="url(#path-4-outside-1_2686_38)"/>
<path d="M614.701 75.7532L638.629 53.857C638.629 53.857 639.412 53.1768 640.978 51.8164C642.674 50.5177 645.217 49.62 648.606 49.1232C652.126 48.688 656.59 49.8324 662 52.5563C667.469 55.1471 670.598 57.8418 671.386 60.6404C672.365 63.3676 671.99 65.939 670.262 68.3546C668.724 70.6987 666.792 72.6939 664.463 74.34C663.078 75.301 660.62 76.8855 657.088 79.0933C653.686 81.3628 649.842 83.9083 645.557 86.7297C641.272 89.5512 637.113 92.2704 633.079 94.8873C629.105 97.3711 625.794 99.4409 623.145 101.097C620.626 102.814 619.366 103.673 619.366 103.673L632.099 167.188C632.099 167.188 632.183 167.875 632.351 169.248C632.58 170.488 632.332 171.907 631.608 173.505C631.014 175.164 629.574 176.422 627.287 177.279C625.13 178.198 621.631 178.238 616.79 177.401C611.949 176.563 608.207 174.872 605.564 172.327C603.052 169.843 601.241 167.207 600.132 164.418C599.084 161.496 598.466 159.02 598.279 156.991C598.091 154.962 597.998 153.947 597.998 153.947L598.045 122.438L575.227 146.073C575.227 146.073 574.63 146.517 573.436 147.407C572.302 148.164 570.226 148.555 567.208 148.581C564.321 148.669 560.273 147.479 555.063 145.011C549.854 142.544 546.63 139.885 545.391 137.034C544.343 134.112 544.362 131.453 545.448 129.057C546.595 126.528 548.016 124.614 549.712 123.315C550.716 122.497 552.823 120.989 556.035 118.791C559.306 116.46 563.02 113.853 567.174 110.969C571.329 108.086 575.358 105.305 579.262 102.627C583.226 99.8151 586.468 97.5505 588.987 95.8329C591.696 94.0439 593.051 93.1494 593.051 93.1494L582.968 37.9233C582.968 37.9233 582.849 37.1392 582.611 35.571C582.503 34.0646 582.841 32.4461 583.625 30.7156C584.41 28.9851 586.046 27.8195 588.533 27.2188C591.02 26.6181 594.924 27.2544 600.244 29.1276C604.723 30.7639 608.089 32.7622 610.341 35.1225C612.653 37.3497 614.164 39.6012 614.872 41.8771C615.771 44.0816 616.21 45.9063 616.187 47.3511C616.295 48.8575 616.349 49.6108 616.349 49.6108L614.701 75.7532Z" stroke="white" stroke-width="46" mask="url(#path-4-outside-1_2686_38)"/>
</g>
<g filter="url(#filter3_d_2686_38)">
<path d="M331.438 289.25C325.135 289.146 318.677 288.99 312.062 288.781C305.5 288.573 299.068 288.104 292.766 287.375C292.036 287.271 291.203 287.193 290.266 287.141C289.38 287.036 288.573 286.854 287.844 286.594C286.333 286.021 285.135 285.396 284.25 284.719C283.417 283.99 282.766 283.182 282.297 282.297C281.828 281.359 281.49 280.344 281.281 279.25C281.073 278.104 280.891 276.828 280.734 275.422C280.266 271.776 279.901 268.13 279.641 264.484C279.38 260.786 279.25 257.089 279.25 253.391C279.25 252.714 279.25 251.906 279.25 250.969C279.302 249.979 279.354 248.964 279.406 247.922C279.51 246.88 279.641 245.891 279.797 244.953C279.953 244.016 280.161 243.234 280.422 242.609C281.672 239.901 283.495 237.74 285.891 236.125C288.339 234.458 291.021 233.182 293.938 232.297C296.854 231.359 299.849 230.76 302.922 230.5C306.047 230.188 308.911 230.031 311.516 230.031C317.089 230.031 322.661 230.578 328.234 231.672L328.859 248.391C323.547 246.724 318.052 245.891 312.375 245.891C311.333 245.891 309.953 245.943 308.234 246.047C306.516 246.151 304.745 246.359 302.922 246.672C301.151 246.932 299.484 247.349 297.922 247.922C296.359 248.443 295.266 249.172 294.641 250.109C294.328 250.578 294.042 251.229 293.781 252.062C293.573 252.896 293.391 253.781 293.234 254.719C293.13 255.604 293.052 256.49 293 257.375C292.948 258.26 292.922 258.99 292.922 259.562C292.922 260.76 293 262.193 293.156 263.859C293.365 265.474 293.599 267.141 293.859 268.859C294.12 270.578 294.432 272.219 294.797 273.781C295.161 275.344 295.552 276.62 295.969 277.609H309.797L309.094 262.531C312.688 262.792 316.281 262.922 319.875 262.922C323.521 262.87 327.141 262.844 330.734 262.844C331.099 267.271 331.307 271.672 331.359 276.047C331.411 280.422 331.438 284.823 331.438 289.25ZM392.375 287.766L380.5 289.562C379.667 286.906 378.833 284.276 378 281.672C377.167 279.016 376.359 276.359 375.578 273.703L356.359 274.406L353.938 284.797H341.906C342.635 275.943 343.391 267.141 344.172 258.391C344.953 249.641 345.708 240.865 346.438 232.062C350.188 231.438 353.911 230.917 357.609 230.5C361.359 230.083 365.135 229.875 368.938 229.875C373.573 229.875 378.208 229.953 382.844 230.109C383.677 235.526 384.484 240.943 385.266 246.359C386.099 251.724 386.958 257.115 387.844 262.531C388.469 266.802 389.146 271.021 389.875 275.188C390.656 279.354 391.49 283.547 392.375 287.766ZM372.844 263.078C372.792 262.609 372.661 261.75 372.453 260.5C372.245 259.198 372.01 257.844 371.75 256.438C371.49 254.979 371.177 253.677 370.812 252.531C370.5 251.333 370.188 250.63 369.875 250.422C369.771 250.37 369.51 250.318 369.094 250.266C368.729 250.214 368.312 250.161 367.844 250.109C367.427 250.057 367.01 250.031 366.594 250.031C366.177 250.031 365.891 250.031 365.734 250.031C365.474 250.031 365.109 250.031 364.641 250.031C364.224 250.031 363.755 250.057 363.234 250.109C362.766 250.109 362.297 250.161 361.828 250.266C361.411 250.37 361.125 250.5 360.969 250.656C360.865 250.708 360.734 251.047 360.578 251.672C360.422 252.297 360.214 253.078 359.953 254.016C359.745 254.901 359.51 255.865 359.25 256.906C359.042 257.948 358.833 258.938 358.625 259.875C358.417 260.812 358.234 261.62 358.078 262.297C357.974 262.974 357.896 263.365 357.844 263.469L372.844 263.078ZM466.75 289.328C465.76 289.276 464.797 289.198 463.859 289.094C463.078 288.99 462.297 288.911 461.516 288.859C460.786 288.807 460.24 288.781 459.875 288.781C457.844 288.781 455.812 288.807 453.781 288.859C451.75 288.964 449.745 289.12 447.766 289.328C447.818 287.141 447.844 285.005 447.844 282.922C447.896 280.786 447.922 278.625 447.922 276.438C447.922 272.531 447.844 268.651 447.688 264.797C447.583 260.943 447.479 257.089 447.375 253.234L430.969 290.344C428.573 283.833 425.995 277.453 423.234 271.203C420.526 264.901 417.688 258.625 414.719 252.375L415.969 290.969C415.396 290.969 414.797 290.943 414.172 290.891C413.599 290.891 413 290.891 412.375 290.891C410.396 290.891 408.443 290.969 406.516 291.125C404.641 291.281 402.74 291.438 400.812 291.594C401.073 286.75 401.333 281.932 401.594 277.141C401.854 272.349 401.984 267.531 401.984 262.688C401.984 257.01 401.932 251.359 401.828 245.734C401.776 240.109 401.724 234.458 401.672 228.781C405.422 228.781 409.068 228.677 412.609 228.469C416.203 228.26 419.875 227.974 423.625 227.609C424.875 231.776 426.151 235.917 427.453 240.031C428.807 244.094 430.24 248.156 431.75 252.219C433.365 248.365 435.188 244.589 437.219 240.891C439.302 237.193 441.411 233.521 443.547 229.875C447.089 229.771 450.578 229.667 454.016 229.562C457.505 229.458 461.021 229.38 464.562 229.328C464.719 234.016 464.901 238.651 465.109 243.234C465.37 247.818 465.604 252.453 465.812 257.141C465.969 260.839 466.099 264.536 466.203 268.234C466.359 271.932 466.49 275.604 466.594 279.25L466.75 285.812V289.328ZM522.453 240.422C517.349 240.682 512.271 240.969 507.219 241.281C502.219 241.542 497.167 241.88 492.062 242.297L491.906 248.469L512.062 247.297C512.323 249.068 512.505 250.812 512.609 252.531C512.766 254.25 512.844 255.995 512.844 257.766C512.844 258.495 512.818 259.25 512.766 260.031C512.766 260.812 512.766 261.568 512.766 262.297L494.016 265.656L495.188 275.344C499.146 275.083 503.078 274.719 506.984 274.25C510.943 273.729 514.927 273.286 518.938 272.922C519.302 275.526 519.667 278.156 520.031 280.812C520.396 283.417 520.917 285.969 521.594 288.469C514.198 288.417 506.854 288.417 499.562 288.469C492.271 288.573 484.927 288.625 477.531 288.625C477.688 282.531 477.87 276.464 478.078 270.422C478.286 264.38 478.391 258.286 478.391 252.141V250.656C478.391 247.115 478.339 243.599 478.234 240.109C478.13 236.568 478.026 233 477.922 229.406C482.036 229.458 486.125 229.484 490.188 229.484C494.302 229.432 498.443 229.406 502.609 229.406C505.786 229.406 508.938 229.484 512.062 229.641C515.24 229.745 518.417 229.875 521.594 230.031L522.453 240.422ZM628.156 289.328C627.167 289.276 626.203 289.198 625.266 289.094C624.484 288.99 623.703 288.911 622.922 288.859C622.193 288.807 621.646 288.781 621.281 288.781C619.25 288.781 617.219 288.807 615.188 288.859C613.156 288.964 611.151 289.12 609.172 289.328C609.224 287.141 609.25 285.005 609.25 282.922C609.302 280.786 609.328 278.625 609.328 276.438C609.328 272.531 609.25 268.651 609.094 264.797C608.99 260.943 608.885 257.089 608.781 253.234L592.375 290.344C589.979 283.833 587.401 277.453 584.641 271.203C581.932 264.901 579.094 258.625 576.125 252.375L577.375 290.969C576.802 290.969 576.203 290.943 575.578 290.891C575.005 290.891 574.406 290.891 573.781 290.891C571.802 290.891 569.849 290.969 567.922 291.125C566.047 291.281 564.146 291.438 562.219 291.594C562.479 286.75 562.74 281.932 563 277.141C563.26 272.349 563.391 267.531 563.391 262.688C563.391 257.01 563.339 251.359 563.234 245.734C563.182 240.109 563.13 234.458 563.078 228.781C566.828 228.781 570.474 228.677 574.016 228.469C577.609 228.26 581.281 227.974 585.031 227.609C586.281 231.776 587.557 235.917 588.859 240.031C590.214 244.094 591.646 248.156 593.156 252.219C594.771 248.365 596.594 244.589 598.625 240.891C600.708 237.193 602.818 233.521 604.953 229.875C608.495 229.771 611.984 229.667 615.422 229.562C618.911 229.458 622.427 229.38 625.969 229.328C626.125 234.016 626.307 238.651 626.516 243.234C626.776 247.818 627.01 252.453 627.219 257.141C627.375 260.839 627.505 264.536 627.609 268.234C627.766 271.932 627.896 275.604 628 279.25L628.156 285.812V289.328ZM704.094 254.641C704.094 255.318 704.094 255.995 704.094 256.672C704.094 257.297 704.068 257.922 704.016 258.547C703.964 259.068 703.885 259.979 703.781 261.281C703.729 262.583 703.625 264.094 703.469 265.812C703.365 267.479 703.208 269.25 703 271.125C702.844 273 702.635 274.745 702.375 276.359C702.167 277.922 701.932 279.276 701.672 280.422C701.411 281.568 701.151 282.271 700.891 282.531C699.328 284.094 697.453 285.266 695.266 286.047C693.13 286.776 690.891 287.271 688.547 287.531C686.203 287.792 683.859 287.896 681.516 287.844C679.172 287.792 676.984 287.766 674.953 287.766C674.276 287.766 673.13 287.766 671.516 287.766C669.901 287.714 668.052 287.661 665.969 287.609C663.938 287.557 661.802 287.479 659.562 287.375C657.323 287.219 655.214 287.036 653.234 286.828C651.307 286.568 649.615 286.281 648.156 285.969C646.75 285.604 645.865 285.161 645.5 284.641C645.083 284.068 644.719 283.443 644.406 282.766C644.094 282.089 643.807 281.438 643.547 280.812C642.87 279.094 642.245 277.271 641.672 275.344C641.099 273.365 640.604 271.359 640.188 269.328C639.823 267.245 639.51 265.188 639.25 263.156C639.042 261.125 638.938 259.198 638.938 257.375C638.938 256.385 639.016 255.109 639.172 253.547C639.328 251.932 639.536 250.214 639.797 248.391C640.057 246.516 640.37 244.615 640.734 242.688C641.099 240.76 641.49 238.964 641.906 237.297C642.375 235.63 642.87 234.198 643.391 233C643.911 231.75 644.484 230.917 645.109 230.5C645.63 230.135 646.594 229.797 648 229.484C649.406 229.172 651.047 228.911 652.922 228.703C654.797 228.443 656.802 228.234 658.938 228.078C661.073 227.87 663.104 227.714 665.031 227.609C666.958 227.453 668.703 227.349 670.266 227.297C671.828 227.245 672.974 227.219 673.703 227.219C674.693 227.219 676.021 227.271 677.688 227.375C679.406 227.479 681.255 227.661 683.234 227.922C685.214 228.13 687.219 228.417 689.25 228.781C691.281 229.094 693.156 229.484 694.875 229.953C696.646 230.422 698.156 230.943 699.406 231.516C700.656 232.089 701.438 232.714 701.75 233.391C702.01 233.964 702.245 234.797 702.453 235.891C702.714 236.932 702.922 238.13 703.078 239.484C703.234 240.839 703.365 242.271 703.469 243.781C703.625 245.292 703.729 246.75 703.781 248.156C703.885 249.51 703.964 250.76 704.016 251.906C704.068 253.052 704.094 253.964 704.094 254.641ZM690.109 257.219C690.109 256.177 690.057 255.083 689.953 253.938C689.849 252.74 689.51 251.698 688.938 250.812C688.521 250.188 687.505 249.693 685.891 249.328C684.328 248.964 682.583 248.703 680.656 248.547C678.781 248.391 676.958 248.312 675.188 248.312C673.417 248.26 672.167 248.234 671.438 248.234C670.865 248.234 669.849 248.286 668.391 248.391C666.984 248.495 665.474 248.677 663.859 248.938C662.297 249.146 660.839 249.432 659.484 249.797C658.13 250.109 657.297 250.5 656.984 250.969C656.672 251.333 656.411 252.036 656.203 253.078C656.047 254.068 655.891 255.161 655.734 256.359C655.63 257.505 655.552 258.625 655.5 259.719C655.448 260.76 655.422 261.516 655.422 261.984C655.422 262.401 655.422 263.026 655.422 263.859C655.474 264.693 655.552 265.552 655.656 266.438C655.76 267.323 655.865 268.156 655.969 268.938C656.125 269.719 656.333 270.292 656.594 270.656C656.75 270.917 657.219 271.151 658 271.359C658.781 271.568 659.719 271.776 660.812 271.984C661.958 272.141 663.156 272.271 664.406 272.375C665.656 272.479 666.854 272.583 668 272.688C669.198 272.74 670.24 272.792 671.125 272.844C672.062 272.844 672.714 272.844 673.078 272.844C673.703 272.844 674.771 272.792 676.281 272.688C677.844 272.583 679.458 272.427 681.125 272.219C682.844 271.958 684.406 271.672 685.812 271.359C687.271 270.995 688.208 270.578 688.625 270.109C688.938 269.745 689.198 268.99 689.406 267.844C689.615 266.646 689.771 265.37 689.875 264.016C689.979 262.609 690.031 261.281 690.031 260.031C690.083 258.729 690.109 257.792 690.109 257.219ZM770.422 259.953C770.422 261.464 770.422 263.052 770.422 264.719C770.422 266.385 770.24 267.974 769.875 269.484C769.615 270.63 769.328 271.646 769.016 272.531C768.703 273.365 768.312 274.146 767.844 274.875C767.375 275.552 766.802 276.203 766.125 276.828C765.448 277.401 764.615 277.974 763.625 278.547C763.312 278.755 762.479 279.042 761.125 279.406C759.771 279.719 758.078 280.109 756.047 280.578C754.068 281.047 751.828 281.542 749.328 282.062C746.88 282.583 744.354 283.104 741.75 283.625C739.198 284.094 736.646 284.589 734.094 285.109C731.594 285.578 729.302 286.021 727.219 286.438C725.188 286.802 723.443 287.141 721.984 287.453C720.578 287.714 719.641 287.87 719.172 287.922C718.286 278.391 717.453 268.938 716.672 259.562C715.891 250.188 715.292 240.708 714.875 231.125C719.25 231.281 723.599 231.464 727.922 231.672C732.245 231.828 736.62 232.062 741.047 232.375C742.193 232.479 743.859 232.609 746.047 232.766C748.286 232.922 750.604 233.156 753 233.469C755.396 233.729 757.635 234.068 759.719 234.484C761.854 234.901 763.391 235.422 764.328 236.047C765.526 236.932 766.594 238.13 767.531 239.641C768.469 241.151 769.146 242.635 769.562 244.094C769.771 244.771 769.927 245.839 770.031 247.297C770.135 248.703 770.214 250.214 770.266 251.828C770.318 253.443 770.344 255.005 770.344 256.516C770.396 258.026 770.422 259.172 770.422 259.953ZM750.969 260.969C750.969 260.396 750.943 259.797 750.891 259.172C750.891 258.495 750.865 257.87 750.812 257.297C750.708 256.464 750.552 255.604 750.344 254.719C750.188 253.781 749.953 252.896 749.641 252.062C749.328 251.177 748.938 250.37 748.469 249.641C748 248.859 747.427 248.182 746.75 247.609C746.385 247.297 745.5 247.062 744.094 246.906C742.688 246.698 741.151 246.568 739.484 246.516C737.818 246.411 736.255 246.359 734.797 246.359C733.339 246.307 732.401 246.281 731.984 246.281H728.781C729.198 250.344 729.562 254.354 729.875 258.312C730.24 262.219 730.552 266.203 730.812 270.266C731.802 270.214 733.208 270.083 735.031 269.875C736.906 269.615 738.807 269.302 740.734 268.938C742.661 268.521 744.458 268.026 746.125 267.453C747.792 266.828 748.99 266.099 749.719 265.266C750.292 264.641 750.63 263.99 750.734 263.312C750.891 262.583 750.969 261.802 750.969 260.969ZM824.562 240.422C819.458 240.682 814.38 240.969 809.328 241.281C804.328 241.542 799.276 241.88 794.172 242.297L794.016 248.469L814.172 247.297C814.432 249.068 814.615 250.812 814.719 252.531C814.875 254.25 814.953 255.995 814.953 257.766C814.953 258.495 814.927 259.25 814.875 260.031C814.875 260.812 814.875 261.568 814.875 262.297L796.125 265.656L797.297 275.344C801.255 275.083 805.188 274.719 809.094 274.25C813.052 273.729 817.036 273.286 821.047 272.922C821.411 275.526 821.776 278.156 822.141 280.812C822.505 283.417 823.026 285.969 823.703 288.469C816.307 288.417 808.964 288.417 801.672 288.469C794.38 288.573 787.036 288.625 779.641 288.625C779.797 282.531 779.979 276.464 780.188 270.422C780.396 264.38 780.5 258.286 780.5 252.141V250.656C780.5 247.115 780.448 243.599 780.344 240.109C780.24 236.568 780.135 233 780.031 229.406C784.146 229.458 788.234 229.484 792.297 229.484C796.411 229.432 800.552 229.406 804.719 229.406C807.896 229.406 811.047 229.484 814.172 229.641C817.349 229.745 820.526 229.875 823.703 230.031L824.562 240.422Z" fill="white"/>
</g>
</g>
<defs>
<filter id="filter0_d_2686_38" x="0" y="4.00916" width="1101" height="777.991" filterUnits="userSpaceOnUse" color-interpolation-filters="sRGB">
<feFlood flood-opacity="0" result="BackgroundImageFix"/>
<feColorMatrix in="SourceAlpha" type="matrix" values="0 0 0 0 0 0 0 0 0 0 0 0 0 0 0 0 0 0 127 0" result="hardAlpha"/>
<feOffset dy="4"/>
<feGaussianBlur stdDeviation="2"/>
<feComposite in2="hardAlpha" operator="out"/>
<feColorMatrix type="matrix" values="0 0 0 0 0 0 0 0 0 0 0 0 0 0 0 0 0 0 0.25 0"/>
<feBlend mode="normal" in2="BackgroundImageFix" result="effect1_dropShadow_2686_38"/>
<feBlend mode="normal" in="SourceGraphic" in2="effect1_dropShadow_2686_38" result="shape"/>
</filter>
<filter id="filter1_i_2686_38" x="50" y="109" width="996" height="600" filterUnits="userSpaceOnUse" color-interpolation-filters="sRGB">
<feFlood flood-opacity="0" result="BackgroundImageFix"/>
<feBlend mode="normal" in="SourceGraphic" in2="BackgroundImageFix" result="shape"/>
<feColorMatrix in="SourceAlpha" type="matrix" values="0 0 0 0 0 0 0 0 0 0 0 0 0 0 0 0 0 0 127 0" result="hardAlpha"/>
<feOffset dy="4"/>
<feGaussianBlur stdDeviation="2.5"/>
<feComposite in2="hardAlpha" operator="arithmetic" k2="-1" k3="1"/>
<feColorMatrix type="matrix" values="0 0 0 0 0 0 0 0 0 0 0 0 0 0 0 0 0 0 0.56 0"/>
<feBlend mode="normal" in2="shape" result="effect1_innerShadow_2686_38"/>
</filter>
<filter id="filter2_d_2686_38" x="353.989" y="0.00915527" width="407.01" height="216.992" filterUnits="userSpaceOnUse" color-interpolation-filters="sRGB">
<feFlood flood-opacity="0" result="BackgroundImageFix"/>
<feColorMatrix in="SourceAlpha" type="matrix" values="0 0 0 0 0 0 0 0 0 0 0 0 0 0 0 0 0 0 127 0" result="hardAlpha"/>
<feOffset dx="3" dy="6"/>
<feGaussianBlur stdDeviation="5"/>
<feComposite in2="hardAlpha" operator="out"/>
<feColorMatrix type="matrix" values="0 0 0 0 0 0 0 0 0 0 0 0 0 0 0 0 0 0 0.38 0"/>
<feBlend mode="normal" in2="BackgroundImageFix" result="effect1_dropShadow_2686_38"/>
<feBlend mode="normal" in="SourceGraphic" in2="effect1_dropShadow_2686_38" result="shape"/>
</filter>
<filter id="filter3_d_2686_38" x="275.25" y="227.219" width="553.312" height="72.375" filterUnits="userSpaceOnUse" color-interpolation-filters="sRGB">
<feFlood flood-opacity="0" result="BackgroundImageFix"/>
<feColorMatrix in="SourceAlpha" type="matrix" values="0 0 0 0 0 0 0 0 0 0 0 0 0 0 0 0 0 0 127 0" result="hardAlpha"/>
<feOffset dy="4"/>
<feGaussianBlur stdDeviation="2"/>
<feComposite in2="hardAlpha" operator="out"/>
<feColorMatrix type="matrix" values="0 0 0 0 0 0 0 0 0 0 0 0 0 0 0 0 0 0 0.42 0"/>
<feBlend mode="normal" in2="BackgroundImageFix" result="effect1_dropShadow_2686_38"/>
<feBlend mode="normal" in="SourceGraphic" in2="effect1_dropShadow_2686_38" result="shape"/>
</filter>
</defs>
</svg>
