<svg width="715" height="355" viewBox="0 0 715 355" fill="none" xmlns="http://www.w3.org/2000/svg">
<g filter="url(#filter0_d_2535_547)">
<mask id="path-1-outside-1_2535_547" maskUnits="userSpaceOnUse" x="7" y="4" width="695" height="335" fill="black">
<rect fill="white" x="7" y="4" width="695" height="335"/>
<path d="M132.196 120.134L146.102 62.111C146.102 62.111 146.595 60.2666 147.58 56.5778C148.828 52.8435 151.784 48.8135 156.448 44.4879C161.374 40.1167 169.378 37.1072 180.459 35.4594C191.495 33.5488 199.062 34.2685 203.16 37.6185C207.476 40.6603 209.563 44.8997 209.422 50.3369C209.498 55.4657 208.609 60.4911 206.754 65.4129C205.633 68.3134 203.516 73.2806 200.403 80.3147C197.554 87.3032 194.315 95.171 190.687 103.918C187.06 112.665 183.518 121.127 180.062 129.303C176.561 137.216 173.643 143.81 171.308 149.086C169.237 154.316 168.201 156.931 168.201 156.931L253.347 238.4C253.347 238.4 254.186 239.338 255.863 241.212C257.496 242.824 258.585 245.207 259.131 248.36C259.939 251.467 259.04 254.871 256.433 258.57C254.088 262.223 248.785 265.983 240.524 269.849C232.262 273.715 224.796 275.143 218.126 274.132C211.719 273.077 206.226 271.05 201.648 268.054C197.024 264.795 193.519 261.748 191.134 258.914C188.749 256.079 187.556 254.662 187.556 254.662L155.038 207.518L144.626 266.965C144.626 266.965 144.174 268.262 143.27 270.854C142.32 273.183 139.553 275.963 134.97 279.192C130.65 282.375 123.235 284.877 112.724 286.697C102.214 288.516 94.5384 287.951 89.6974 285C85.0737 281.741 82.3524 277.747 81.5336 273.017C80.6693 268.024 80.8611 263.661 82.1091 259.927C82.7962 257.643 84.4559 253.161 87.0882 246.48C89.6751 239.537 92.651 231.715 96.0159 223.013C99.3809 214.312 102.66 205.896 105.853 197.765C109.001 189.372 111.61 182.56 113.682 177.33C115.971 171.792 117.115 169.023 117.115 169.023L44.5899 97.1411C44.5899 97.1411 43.597 96.0952 41.611 94.0033C39.8878 91.8659 38.7305 89.0893 38.1392 85.6734C37.5478 82.2576 38.8412 78.7861 42.0194 75.2589C45.1977 71.7317 51.8196 68.5555 61.8852 65.7303C70.4197 63.4409 77.6279 62.8696 83.5098 64.0163C89.3461 64.9004 93.9824 66.6687 97.4186 69.3214C101.072 71.6659 103.629 73.9296 105.089 76.1124C106.813 78.2498 107.674 79.3185 107.674 79.3185L132.196 120.134Z"/>
<path d="M351.764 87.3669C360.207 92.5352 365.718 97.8758 368.298 103.389C370.878 108.902 372.442 112.188 372.99 113.247C374.358 115.896 375.433 118.495 376.213 121.045C377.209 123.752 377.707 125.106 377.707 125.106C377.707 125.106 378.93 126.823 381.376 130.257C383.822 133.692 385.706 139.027 387.029 146.264C388.509 153.285 388.016 162.332 385.55 173.406C383.083 184.479 376.908 197.469 367.026 212.375C360.385 222.384 352.905 229.471 344.586 233.635C336.424 237.584 327.864 239.591 318.904 239.657C310.316 239.664 301.819 238.417 293.412 235.915C285.377 233.355 278.029 230.305 271.368 226.767C264.923 223.386 259.682 220.388 255.647 217.775C251.828 215.319 249.918 214.091 249.918 214.091C249.918 214.091 247.764 212.519 243.455 209.376C239.361 206.39 234.662 201.972 229.358 196.122C224.21 190.057 220.005 182.698 216.743 174.048C213.854 165.339 213.349 155.398 215.227 144.225C217.321 133.21 223.534 121.073 233.865 107.814C244.197 94.5561 254.768 85.2682 265.578 79.9509C276.761 74.5752 287.391 71.7671 297.469 71.5266C307.762 71.4432 316.926 72.6816 324.961 75.2418C333.211 77.9591 339.647 80.6739 344.27 83.386C349.266 86.0399 351.764 87.3669 351.764 87.3669ZM329.955 119.979C329.955 119.979 327.298 120.681 321.982 122.085C316.883 123.647 310.654 126.53 303.296 130.734C296.153 135.096 289.517 141.478 283.388 149.88C277.416 158.067 273.671 165.238 272.153 171.392C270.634 177.546 270.167 182.486 270.75 186.212C271.705 189.879 272.829 192.184 274.122 193.127C275.414 194.07 277.854 195.025 281.44 195.99C285.399 196.898 290.135 196.062 295.648 193.482C301.161 190.901 307.189 184.901 313.731 175.48C319.173 167.567 322.869 160.69 324.818 154.851C326.983 149.168 328.216 143.631 328.518 138.24C329.192 132.791 329.671 126.704 329.955 119.979Z"/>
<path d="M606.769 136.692C616.537 138.293 623.656 141.16 628.126 145.292C632.595 149.424 635.283 151.877 636.19 152.652C638.457 154.588 640.433 156.59 642.118 158.657C644.062 160.788 645.033 161.854 645.033 161.854C645.033 161.854 646.814 162.982 650.375 165.24C653.936 167.498 657.694 171.728 661.649 177.931C665.669 183.875 668.625 192.439 670.519 203.625C672.413 214.811 671.596 229.171 668.067 246.704C665.693 258.479 661.44 267.864 655.307 274.859C649.239 281.595 642.068 286.684 633.795 290.125C625.845 293.372 617.505 295.423 608.775 296.278C600.368 296.938 592.413 296.886 584.91 296.123C577.665 295.423 571.681 294.624 566.958 293.727C562.494 292.893 560.262 292.476 560.262 292.476C560.262 292.476 557.674 291.834 552.498 290.549C547.58 289.328 541.562 287.009 534.442 283.593C527.386 279.918 520.716 274.69 514.431 267.909C508.469 260.934 504.251 251.919 501.775 240.863C499.558 229.872 500.733 216.288 505.298 200.111C509.864 183.935 516.149 171.345 524.154 162.342C532.483 153.144 541.268 146.533 550.51 142.508C560.011 138.547 568.965 136.237 577.372 135.576C586.037 134.98 593.022 135.065 598.327 135.833C603.955 136.406 606.769 136.692 606.769 136.692ZM598.876 175.123C598.876 175.123 596.68 176.776 592.287 180.081C588.154 183.451 583.473 188.471 578.245 195.141C573.276 201.876 569.538 210.29 567.032 220.383C564.591 230.218 563.828 238.272 564.743 244.544C565.659 250.816 567.09 255.567 569.035 258.798C571.304 261.834 573.215 263.545 574.768 263.93C576.32 264.316 578.94 264.279 582.626 263.82C586.634 263.167 590.705 260.606 594.837 256.136C598.969 251.667 602.287 243.836 604.791 232.643C606.845 223.261 607.673 215.499 607.275 209.355C607.136 203.276 606.189 197.683 604.435 192.576C603.003 187.275 601.15 181.457 598.876 175.123Z"/>
<path d="M466.598 122.614L511.051 82.8154C511.051 82.8154 512.506 81.579 515.415 79.1064C518.566 76.7458 523.29 75.1141 529.587 74.2111C536.125 73.4202 544.419 75.5002 554.469 80.4511C564.631 85.1601 570.444 90.058 571.907 95.1448C573.725 100.102 573.029 104.776 569.819 109.166C566.963 113.427 563.372 117.053 559.046 120.045C556.473 121.792 551.906 124.672 545.344 128.685C539.024 132.81 531.883 137.437 523.923 142.565C515.962 147.693 508.234 152.636 500.74 157.392C493.358 161.907 487.206 165.669 482.284 168.678C477.605 171.8 475.265 173.361 475.265 173.361L498.919 288.806C498.919 288.806 499.075 290.054 499.388 292.55C499.813 294.805 499.353 297.383 498.007 300.287C496.904 303.302 494.228 305.589 489.979 307.147C485.972 308.817 479.472 308.891 470.478 307.369C461.485 305.846 454.533 302.772 449.623 298.146C444.955 293.631 441.592 288.84 439.532 283.77C437.585 278.459 436.437 273.96 436.088 270.272C435.74 266.583 435.566 264.739 435.566 264.739L435.654 207.468L393.263 250.427C393.263 250.427 392.154 251.235 389.935 252.852C387.828 254.227 383.972 254.938 378.366 254.986C373.001 255.145 365.48 252.982 355.802 248.498C346.124 244.013 340.134 239.18 337.833 233.999C335.885 228.688 335.921 223.854 337.939 219.499C340.069 214.902 342.71 211.423 345.861 209.063C347.726 207.576 351.641 204.835 357.607 200.839C363.685 196.602 370.584 191.863 378.302 186.623C386.021 181.383 393.507 176.328 400.759 171.459C408.124 166.349 414.146 162.233 418.825 159.111C423.859 155.859 426.376 154.233 426.376 154.233L407.644 53.8541C407.644 53.8541 407.422 52.429 406.98 49.5787C406.779 46.8406 407.407 43.8988 408.865 40.7534C410.323 37.608 413.362 35.4895 417.982 34.3977C422.603 33.3058 429.855 34.4623 439.74 37.8672C448.061 40.8412 454.313 44.4733 458.497 48.7634C462.793 52.8115 465.599 56.904 466.916 61.0407C468.586 65.0476 469.4 68.3641 469.359 70.9901C469.559 73.7283 469.66 75.0973 469.66 75.0973L466.598 122.614Z"/>
</mask>
<path d="M132.196 120.134L146.102 62.111C146.102 62.111 146.595 60.2666 147.58 56.5778C148.828 52.8435 151.784 48.8135 156.448 44.4879C161.374 40.1167 169.378 37.1072 180.459 35.4594C191.495 33.5488 199.062 34.2685 203.16 37.6185C207.476 40.6603 209.563 44.8997 209.422 50.3369C209.498 55.4657 208.609 60.4911 206.754 65.4129C205.633 68.3134 203.516 73.2806 200.403 80.3147C197.554 87.3032 194.315 95.171 190.687 103.918C187.06 112.665 183.518 121.127 180.062 129.303C176.561 137.216 173.643 143.81 171.308 149.086C169.237 154.316 168.201 156.931 168.201 156.931L253.347 238.4C253.347 238.4 254.186 239.338 255.863 241.212C257.496 242.824 258.585 245.207 259.131 248.36C259.939 251.467 259.04 254.871 256.433 258.57C254.088 262.223 248.785 265.983 240.524 269.849C232.262 273.715 224.796 275.143 218.126 274.132C211.719 273.077 206.226 271.05 201.648 268.054C197.024 264.795 193.519 261.748 191.134 258.914C188.749 256.079 187.556 254.662 187.556 254.662L155.038 207.518L144.626 266.965C144.626 266.965 144.174 268.262 143.27 270.854C142.32 273.183 139.553 275.963 134.97 279.192C130.65 282.375 123.235 284.877 112.724 286.697C102.214 288.516 94.5384 287.951 89.6974 285C85.0737 281.741 82.3524 277.747 81.5336 273.017C80.6693 268.024 80.8611 263.661 82.1091 259.927C82.7962 257.643 84.4559 253.161 87.0882 246.48C89.6751 239.537 92.651 231.715 96.0159 223.013C99.3809 214.312 102.66 205.896 105.853 197.765C109.001 189.372 111.61 182.56 113.682 177.33C115.971 171.792 117.115 169.023 117.115 169.023L44.5899 97.1411C44.5899 97.1411 43.597 96.0952 41.611 94.0033C39.8878 91.8659 38.7305 89.0893 38.1392 85.6734C37.5478 82.2576 38.8412 78.7861 42.0194 75.2589C45.1977 71.7317 51.8196 68.5555 61.8852 65.7303C70.4197 63.4409 77.6279 62.8696 83.5098 64.0163C89.3461 64.9004 93.9824 66.6687 97.4186 69.3214C101.072 71.6659 103.629 73.9296 105.089 76.1124C106.813 78.2498 107.674 79.3185 107.674 79.3185L132.196 120.134Z" fill="#4A88FF"/>
<path d="M351.764 87.3669C360.207 92.5352 365.718 97.8758 368.298 103.389C370.878 108.902 372.442 112.188 372.99 113.247C374.358 115.896 375.433 118.495 376.213 121.045C377.209 123.752 377.707 125.106 377.707 125.106C377.707 125.106 378.93 126.823 381.376 130.257C383.822 133.692 385.706 139.027 387.029 146.264C388.509 153.285 388.016 162.332 385.55 173.406C383.083 184.479 376.908 197.469 367.026 212.375C360.385 222.384 352.905 229.471 344.586 233.635C336.424 237.584 327.864 239.591 318.904 239.657C310.316 239.664 301.819 238.417 293.412 235.915C285.377 233.355 278.029 230.305 271.368 226.767C264.923 223.386 259.682 220.388 255.647 217.775C251.828 215.319 249.918 214.091 249.918 214.091C249.918 214.091 247.764 212.519 243.455 209.376C239.361 206.39 234.662 201.972 229.358 196.122C224.21 190.057 220.005 182.698 216.743 174.048C213.854 165.339 213.349 155.398 215.227 144.225C217.321 133.21 223.534 121.073 233.865 107.814C244.197 94.5561 254.768 85.2682 265.578 79.9509C276.761 74.5752 287.391 71.7671 297.469 71.5266C307.762 71.4432 316.926 72.6816 324.961 75.2418C333.211 77.9591 339.647 80.6739 344.27 83.386C349.266 86.0399 351.764 87.3669 351.764 87.3669ZM329.955 119.979C329.955 119.979 327.298 120.681 321.982 122.085C316.883 123.647 310.654 126.53 303.296 130.734C296.153 135.096 289.517 141.478 283.388 149.88C277.416 158.067 273.671 165.238 272.153 171.392C270.634 177.546 270.167 182.486 270.75 186.212C271.705 189.879 272.829 192.184 274.122 193.127C275.414 194.07 277.854 195.025 281.44 195.99C285.399 196.898 290.135 196.062 295.648 193.482C301.161 190.901 307.189 184.901 313.731 175.48C319.173 167.567 322.869 160.69 324.818 154.851C326.983 149.168 328.216 143.631 328.518 138.24C329.192 132.791 329.671 126.704 329.955 119.979Z" fill="#FFC121"/>
<path d="M606.769 136.692C616.537 138.293 623.656 141.16 628.126 145.292C632.595 149.424 635.283 151.877 636.19 152.652C638.457 154.588 640.433 156.59 642.118 158.657C644.062 160.788 645.033 161.854 645.033 161.854C645.033 161.854 646.814 162.982 650.375 165.24C653.936 167.498 657.694 171.728 661.649 177.931C665.669 183.875 668.625 192.439 670.519 203.625C672.413 214.811 671.596 229.171 668.067 246.704C665.693 258.479 661.44 267.864 655.307 274.859C649.239 281.595 642.068 286.684 633.795 290.125C625.845 293.372 617.505 295.423 608.775 296.278C600.368 296.938 592.413 296.886 584.91 296.123C577.665 295.423 571.681 294.624 566.958 293.727C562.494 292.893 560.262 292.476 560.262 292.476C560.262 292.476 557.674 291.834 552.498 290.549C547.58 289.328 541.562 287.009 534.442 283.593C527.386 279.918 520.716 274.69 514.431 267.909C508.469 260.934 504.251 251.919 501.775 240.863C499.558 229.872 500.733 216.288 505.298 200.111C509.864 183.935 516.149 171.345 524.154 162.342C532.483 153.144 541.268 146.533 550.51 142.508C560.011 138.547 568.965 136.237 577.372 135.576C586.037 134.98 593.022 135.065 598.327 135.833C603.955 136.406 606.769 136.692 606.769 136.692ZM598.876 175.123C598.876 175.123 596.68 176.776 592.287 180.081C588.154 183.451 583.473 188.471 578.245 195.141C573.276 201.876 569.538 210.29 567.032 220.383C564.591 230.218 563.828 238.272 564.743 244.544C565.659 250.816 567.09 255.567 569.035 258.798C571.304 261.834 573.215 263.545 574.768 263.93C576.32 264.316 578.94 264.279 582.626 263.82C586.634 263.167 590.705 260.606 594.837 256.136C598.969 251.667 602.287 243.836 604.791 232.643C606.845 223.261 607.673 215.499 607.275 209.355C607.136 203.276 606.189 197.683 604.435 192.576C603.003 187.275 601.15 181.457 598.876 175.123Z" fill="#FFC121"/>
<path d="M466.598 122.614L511.051 82.8154C511.051 82.8154 512.506 81.579 515.415 79.1064C518.566 76.7458 523.29 75.1141 529.587 74.2111C536.125 73.4202 544.419 75.5002 554.469 80.4511C564.631 85.1601 570.444 90.058 571.907 95.1448C573.725 100.102 573.029 104.776 569.819 109.166C566.963 113.427 563.372 117.053 559.046 120.045C556.473 121.792 551.906 124.672 545.344 128.685C539.024 132.81 531.883 137.437 523.923 142.565C515.962 147.693 508.234 152.636 500.74 157.392C493.358 161.907 487.206 165.669 482.284 168.678C477.605 171.8 475.265 173.361 475.265 173.361L498.919 288.806C498.919 288.806 499.075 290.054 499.388 292.55C499.813 294.805 499.353 297.383 498.007 300.287C496.904 303.302 494.228 305.589 489.979 307.147C485.972 308.817 479.472 308.891 470.478 307.369C461.485 305.846 454.533 302.772 449.623 298.146C444.955 293.631 441.592 288.84 439.532 283.77C437.585 278.459 436.437 273.96 436.088 270.272C435.74 266.583 435.566 264.739 435.566 264.739L435.654 207.468L393.263 250.427C393.263 250.427 392.154 251.235 389.935 252.852C387.828 254.227 383.972 254.938 378.366 254.986C373.001 255.145 365.48 252.982 355.802 248.498C346.124 244.013 340.134 239.18 337.833 233.999C335.885 228.688 335.921 223.854 337.939 219.499C340.069 214.902 342.71 211.423 345.861 209.063C347.726 207.576 351.641 204.835 357.607 200.839C363.685 196.602 370.584 191.863 378.302 186.623C386.021 181.383 393.507 176.328 400.759 171.459C408.124 166.349 414.146 162.233 418.825 159.111C423.859 155.859 426.376 154.233 426.376 154.233L407.644 53.8541C407.644 53.8541 407.422 52.429 406.98 49.5787C406.779 46.8406 407.407 43.8988 408.865 40.7534C410.323 37.608 413.362 35.4895 417.982 34.3977C422.603 33.3058 429.855 34.4623 439.74 37.8672C448.061 40.8412 454.313 44.4733 458.497 48.7634C462.793 52.8115 465.599 56.904 466.916 61.0407C468.586 65.0476 469.4 68.3641 469.359 70.9901C469.559 73.7283 469.66 75.0973 469.66 75.0973L466.598 122.614Z" fill="#4A88FF"/>
<path d="M132.196 120.134L146.102 62.111C146.102 62.111 146.595 60.2666 147.58 56.5778C148.828 52.8435 151.784 48.8135 156.448 44.4879C161.374 40.1167 169.378 37.1072 180.459 35.4594C191.495 33.5488 199.062 34.2685 203.16 37.6185C207.476 40.6603 209.563 44.8997 209.422 50.3369C209.498 55.4657 208.609 60.4911 206.754 65.4129C205.633 68.3134 203.516 73.2806 200.403 80.3147C197.554 87.3032 194.315 95.171 190.687 103.918C187.06 112.665 183.518 121.127 180.062 129.303C176.561 137.216 173.643 143.81 171.308 149.086C169.237 154.316 168.201 156.931 168.201 156.931L253.347 238.4C253.347 238.4 254.186 239.338 255.863 241.212C257.496 242.824 258.585 245.207 259.131 248.36C259.939 251.467 259.04 254.871 256.433 258.57C254.088 262.223 248.785 265.983 240.524 269.849C232.262 273.715 224.796 275.143 218.126 274.132C211.719 273.077 206.226 271.05 201.648 268.054C197.024 264.795 193.519 261.748 191.134 258.914C188.749 256.079 187.556 254.662 187.556 254.662L155.038 207.518L144.626 266.965C144.626 266.965 144.174 268.262 143.27 270.854C142.32 273.183 139.553 275.963 134.97 279.192C130.65 282.375 123.235 284.877 112.724 286.697C102.214 288.516 94.5384 287.951 89.6974 285C85.0737 281.741 82.3524 277.747 81.5336 273.017C80.6693 268.024 80.8611 263.661 82.1091 259.927C82.7962 257.643 84.4559 253.161 87.0882 246.48C89.6751 239.537 92.651 231.715 96.0159 223.013C99.3809 214.312 102.66 205.896 105.853 197.765C109.001 189.372 111.61 182.56 113.682 177.33C115.971 171.792 117.115 169.023 117.115 169.023L44.5899 97.1411C44.5899 97.1411 43.597 96.0952 41.611 94.0033C39.8878 91.8659 38.7305 89.0893 38.1392 85.6734C37.5478 82.2576 38.8412 78.7861 42.0194 75.2589C45.1977 71.7317 51.8196 68.5555 61.8852 65.7303C70.4197 63.4409 77.6279 62.8696 83.5098 64.0163C89.3461 64.9004 93.9824 66.6687 97.4186 69.3214C101.072 71.6659 103.629 73.9296 105.089 76.1124C106.813 78.2498 107.674 79.3185 107.674 79.3185L132.196 120.134Z" stroke="white" stroke-width="60" mask="url(#path-1-outside-1_2535_547)"/>
<path d="M351.764 87.3669C360.207 92.5352 365.718 97.8758 368.298 103.389C370.878 108.902 372.442 112.188 372.99 113.247C374.358 115.896 375.433 118.495 376.213 121.045C377.209 123.752 377.707 125.106 377.707 125.106C377.707 125.106 378.93 126.823 381.376 130.257C383.822 133.692 385.706 139.027 387.029 146.264C388.509 153.285 388.016 162.332 385.55 173.406C383.083 184.479 376.908 197.469 367.026 212.375C360.385 222.384 352.905 229.471 344.586 233.635C336.424 237.584 327.864 239.591 318.904 239.657C310.316 239.664 301.819 238.417 293.412 235.915C285.377 233.355 278.029 230.305 271.368 226.767C264.923 223.386 259.682 220.388 255.647 217.775C251.828 215.319 249.918 214.091 249.918 214.091C249.918 214.091 247.764 212.519 243.455 209.376C239.361 206.39 234.662 201.972 229.358 196.122C224.21 190.057 220.005 182.698 216.743 174.048C213.854 165.339 213.349 155.398 215.227 144.225C217.321 133.21 223.534 121.073 233.865 107.814C244.197 94.5561 254.768 85.2682 265.578 79.9509C276.761 74.5752 287.391 71.7671 297.469 71.5266C307.762 71.4432 316.926 72.6816 324.961 75.2418C333.211 77.9591 339.647 80.6739 344.27 83.386C349.266 86.0399 351.764 87.3669 351.764 87.3669ZM329.955 119.979C329.955 119.979 327.298 120.681 321.982 122.085C316.883 123.647 310.654 126.53 303.296 130.734C296.153 135.096 289.517 141.478 283.388 149.88C277.416 158.067 273.671 165.238 272.153 171.392C270.634 177.546 270.167 182.486 270.75 186.212C271.705 189.879 272.829 192.184 274.122 193.127C275.414 194.07 277.854 195.025 281.44 195.99C285.399 196.898 290.135 196.062 295.648 193.482C301.161 190.901 307.189 184.901 313.731 175.48C319.173 167.567 322.869 160.69 324.818 154.851C326.983 149.168 328.216 143.631 328.518 138.24C329.192 132.791 329.671 126.704 329.955 119.979Z" stroke="white" stroke-width="60" mask="url(#path-1-outside-1_2535_547)"/>
<path d="M606.769 136.692C616.537 138.293 623.656 141.16 628.126 145.292C632.595 149.424 635.283 151.877 636.19 152.652C638.457 154.588 640.433 156.59 642.118 158.657C644.062 160.788 645.033 161.854 645.033 161.854C645.033 161.854 646.814 162.982 650.375 165.24C653.936 167.498 657.694 171.728 661.649 177.931C665.669 183.875 668.625 192.439 670.519 203.625C672.413 214.811 671.596 229.171 668.067 246.704C665.693 258.479 661.44 267.864 655.307 274.859C649.239 281.595 642.068 286.684 633.795 290.125C625.845 293.372 617.505 295.423 608.775 296.278C600.368 296.938 592.413 296.886 584.91 296.123C577.665 295.423 571.681 294.624 566.958 293.727C562.494 292.893 560.262 292.476 560.262 292.476C560.262 292.476 557.674 291.834 552.498 290.549C547.58 289.328 541.562 287.009 534.442 283.593C527.386 279.918 520.716 274.69 514.431 267.909C508.469 260.934 504.251 251.919 501.775 240.863C499.558 229.872 500.733 216.288 505.298 200.111C509.864 183.935 516.149 171.345 524.154 162.342C532.483 153.144 541.268 146.533 550.51 142.508C560.011 138.547 568.965 136.237 577.372 135.576C586.037 134.98 593.022 135.065 598.327 135.833C603.955 136.406 606.769 136.692 606.769 136.692ZM598.876 175.123C598.876 175.123 596.68 176.776 592.287 180.081C588.154 183.451 583.473 188.471 578.245 195.141C573.276 201.876 569.538 210.29 567.032 220.383C564.591 230.218 563.828 238.272 564.743 244.544C565.659 250.816 567.09 255.567 569.035 258.798C571.304 261.834 573.215 263.545 574.768 263.93C576.32 264.316 578.94 264.279 582.626 263.82C586.634 263.167 590.705 260.606 594.837 256.136C598.969 251.667 602.287 243.836 604.791 232.643C606.845 223.261 607.673 215.499 607.275 209.355C607.136 203.276 606.189 197.683 604.435 192.576C603.003 187.275 601.15 181.457 598.876 175.123Z" stroke="white" stroke-width="60" mask="url(#path-1-outside-1_2535_547)"/>
<path d="M466.598 122.614L511.051 82.8154C511.051 82.8154 512.506 81.579 515.415 79.1064C518.566 76.7458 523.29 75.1141 529.587 74.2111C536.125 73.4202 544.419 75.5002 554.469 80.4511C564.631 85.1601 570.444 90.058 571.907 95.1448C573.725 100.102 573.029 104.776 569.819 109.166C566.963 113.427 563.372 117.053 559.046 120.045C556.473 121.792 551.906 124.672 545.344 128.685C539.024 132.81 531.883 137.437 523.923 142.565C515.962 147.693 508.234 152.636 500.74 157.392C493.358 161.907 487.206 165.669 482.284 168.678C477.605 171.8 475.265 173.361 475.265 173.361L498.919 288.806C498.919 288.806 499.075 290.054 499.388 292.55C499.813 294.805 499.353 297.383 498.007 300.287C496.904 303.302 494.228 305.589 489.979 307.147C485.972 308.817 479.472 308.891 470.478 307.369C461.485 305.846 454.533 302.772 449.623 298.146C444.955 293.631 441.592 288.84 439.532 283.77C437.585 278.459 436.437 273.96 436.088 270.272C435.74 266.583 435.566 264.739 435.566 264.739L435.654 207.468L393.263 250.427C393.263 250.427 392.154 251.235 389.935 252.852C387.828 254.227 383.972 254.938 378.366 254.986C373.001 255.145 365.48 252.982 355.802 248.498C346.124 244.013 340.134 239.18 337.833 233.999C335.885 228.688 335.921 223.854 337.939 219.499C340.069 214.902 342.71 211.423 345.861 209.063C347.726 207.576 351.641 204.835 357.607 200.839C363.685 196.602 370.584 191.863 378.302 186.623C386.021 181.383 393.507 176.328 400.759 171.459C408.124 166.349 414.146 162.233 418.825 159.111C423.859 155.859 426.376 154.233 426.376 154.233L407.644 53.8541C407.644 53.8541 407.422 52.429 406.98 49.5787C406.779 46.8406 407.407 43.8988 408.865 40.7534C410.323 37.608 413.362 35.4895 417.982 34.3977C422.603 33.3058 429.855 34.4623 439.74 37.8672C448.061 40.8412 454.313 44.4733 458.497 48.7634C462.793 52.8115 465.599 56.904 466.916 61.0407C468.586 65.0476 469.4 68.3641 469.359 70.9901C469.559 73.7283 469.66 75.0973 469.66 75.0973L466.598 122.614Z" stroke="white" stroke-width="60" mask="url(#path-1-outside-1_2535_547)"/>
</g>
<defs>
<filter id="filter0_d_2535_547" x="0.984894" y="0.0123901" width="713.526" height="354.447" filterUnits="userSpaceOnUse" color-interpolation-filters="sRGB">
<feFlood flood-opacity="0" result="BackgroundImageFix"/>
<feColorMatrix in="SourceAlpha" type="matrix" values="0 0 0 0 0 0 0 0 0 0 0 0 0 0 0 0 0 0 127 0" result="hardAlpha"/>
<feOffset dx="3" dy="6"/>
<feGaussianBlur stdDeviation="5"/>
<feComposite in2="hardAlpha" operator="out"/>
<feColorMatrix type="matrix" values="0 0 0 0 0 0 0 0 0 0 0 0 0 0 0 0 0 0 0.38 0"/>
<feBlend mode="normal" in2="BackgroundImageFix" result="effect1_dropShadow_2535_547"/>
<feBlend mode="normal" in="SourceGraphic" in2="effect1_dropShadow_2535_547" result="shape"/>
</filter>
</defs>
</svg>
