<svg width="779" height="780" viewBox="0 0 779 780" fill="none" xmlns="http://www.w3.org/2000/svg">
<path d="M2.72103 52.4372C1.77036 35.9031 14.3977 21.7264 30.9312 20.7656L388.278 0L698.953 5.01285H722.134L755.008 27.3284C763.694 33.2242 768.666 43.2309 768.118 53.7141L731.682 751.564C730.849 767.503 717.683 780 701.722 780L102.761 780C86.6492 780 71.525 772.236 62.1336 759.145L54.1384 748L43.5277 725.206C41.9267 721.766 40.9926 718.055 40.7748 714.267L2.72103 52.4372Z" fill="#1565FF"/>
<path d="M25.3422 58.1779C24.0771 40.7975 37.8367 26 55.263 26H709.346C726.546 26 740.225 40.433 739.302 57.6089L704.525 705.136C703.67 721.056 690.511 733.527 674.568 733.527H102.396C86.6721 733.527 73.6163 721.387 72.4748 705.705L25.3422 58.1779Z" fill="#98BBFF" stroke="#4A88FF" stroke-width="50"/>
<g filter="url(#filter0_i_2559_14)">
<path d="M38.3165 66.1556C37.065 48.7832 50.8214 34 68.2389 34H696.363C713.557 34 727.233 48.4225 726.321 65.5924L692.886 694.592C692.039 710.52 678.878 723 662.928 723H113.552C97.8195 723 84.7596 710.847 83.6292 695.156L38.3165 66.1556Z" fill="#98BBFF"/>
</g>
<defs>
<filter id="filter0_i_2559_14" x="38.2374" y="34" width="692.126" height="693" filterUnits="userSpaceOnUse" color-interpolation-filters="sRGB">
<feFlood flood-opacity="0" result="BackgroundImageFix"/>
<feBlend mode="normal" in="SourceGraphic" in2="BackgroundImageFix" result="shape"/>
<feColorMatrix in="SourceAlpha" type="matrix" values="0 0 0 0 0 0 0 0 0 0 0 0 0 0 0 0 0 0 127 0" result="hardAlpha"/>
<feOffset dx="8" dy="8"/>
<feGaussianBlur stdDeviation="2"/>
<feComposite in2="hardAlpha" operator="arithmetic" k2="-1" k3="1"/>
<feColorMatrix type="matrix" values="0 0 0 0 0 0 0 0 0 0 0 0 0 0 0 0 0 0 0.38 0"/>
<feBlend mode="normal" in2="shape" result="effect1_innerShadow_2559_14"/>
</filter>
</defs>
</svg>
