<svg width="665" height="642" viewBox="0 0 665 642" fill="none" xmlns="http://www.w3.org/2000/svg">
<g filter="url(#filter0_d_2540_1880)">
<path d="M5.04946 108.966C3.92344 92.2293 16.7398 77.8212 33.4937 76.9892L335.313 62L601.894 65.6761L588 62L640.976 81.3333C653.448 85.8848 661.445 98.0928 660.635 111.345L630.425 605.829C629.458 621.658 616.339 634 600.481 634L336.392 634H91.6045C76.828 634 62.8083 627.464 53.3081 616.146L48.5966 610.533L40.558 595.775C38.4856 591.97 37.2619 587.762 36.9711 583.439L5.04946 108.966Z" fill="#1565FF"/>
</g>
<path d="M36.2056 84.8758C34.7989 67.414 48.5904 52.4668 66.1087 52.4668H596.735C614.004 52.4668 627.707 67.0089 626.682 84.2469L598.76 553.985C597.818 569.834 584.69 582.205 568.813 582.205H103.951C88.3166 582.205 75.3033 570.198 74.0479 554.614L36.2056 84.8758Z" fill="#4A88FF" stroke="#4A88FF" stroke-width="50"/>
<g filter="url(#filter1_i_2540_1880)">
<path d="M46.9495 90.8409C45.5579 73.3878 59.346 58.4565 76.8546 58.4565H585.982C603.243 58.4565 616.944 72.9869 615.93 90.2184L589.724 535.68C588.572 555.252 569.263 568.478 550.596 562.479L335.961 493.5L121.601 562.673C103.173 568.62 84.0219 555.81 82.4828 536.507L46.9495 90.8409Z" fill="#98BBFF"/>
</g>
<rect x="144.486" y="15.3335" width="411.352" height="99.6667" rx="49.8334" fill="#1565FF"/>
<rect x="148.5" y="7.5" width="401" height="93.1" rx="46.55" fill="#03BA2B" stroke="white" stroke-width="15"/>
<path d="M385.47 26.3673C385.664 24.8709 386.998 23.6881 388.514 23.669L431.89 23.123L473.939 27.7419C474.482 27.8015 474.984 28.0143 475.386 28.3554C477.4 30.0644 475.866 33.5032 473.108 33.4627L433.97 32.8881L387.864 29.3217C386.332 29.2032 385.272 27.895 385.47 26.3673Z" fill="white" fill-opacity="0.35"/>
<path d="M488.284 33.0213C489.555 31.1378 492.376 30.0437 494.585 30.5778L505.569 33.2334C507.778 33.7674 508.538 35.7273 507.267 37.6108C505.995 39.4944 503.174 40.5884 500.966 40.0544L489.982 37.3987C487.773 36.8647 487.013 34.9049 488.284 33.0213Z" fill="white" fill-opacity="0.35"/>
<path d="M219.33 47.2676C216.498 47.4303 213.699 47.5605 210.932 47.6582C208.197 47.7559 205.43 47.9349 202.631 48.1953L203.022 52.3945L211.127 52.9316L212.494 57.8145C211.029 58.14 209.548 58.4004 208.051 58.5957C206.586 58.7585 205.121 58.9863 203.656 59.2793C203.982 61.7207 204.21 64.1621 204.34 66.6035C204.47 69.0124 204.535 71.4375 204.535 73.8789L191.693 74.3184C191.856 70.5098 191.954 66.7337 191.986 62.9902C192.019 59.2142 192.035 55.4219 192.035 51.6133V47.2676V37.4531C193.923 37.4206 195.779 37.388 197.602 37.3555C199.457 37.2904 201.329 37.2578 203.217 37.2578C205.756 37.2578 208.295 37.3229 210.834 37.4531C213.373 37.5508 215.928 37.6647 218.5 37.7949C218.695 39.3574 218.874 40.9362 219.037 42.5312C219.232 44.0938 219.33 45.6725 219.33 47.2676ZM254.877 72.8535L247.455 73.9766C246.934 72.3164 246.413 70.6725 245.893 69.0449C245.372 67.3848 244.867 65.7246 244.379 64.0645L232.367 64.5039L230.854 70.998H223.334C223.79 65.4642 224.262 59.9629 224.75 54.4941C225.238 49.0254 225.71 43.5404 226.166 38.0391C228.51 37.6484 230.837 37.3229 233.148 37.0625C235.492 36.8021 237.852 36.6719 240.229 36.6719C243.126 36.6719 246.023 36.7207 248.92 36.8184C249.441 40.2038 249.945 43.5892 250.434 46.9746C250.954 50.3275 251.492 53.6966 252.045 57.082C252.436 59.7513 252.859 62.388 253.315 64.9922C253.803 67.5964 254.324 70.2168 254.877 72.8535ZM242.67 57.4238C242.637 57.1309 242.556 56.5938 242.426 55.8125C242.296 54.9987 242.149 54.1523 241.986 53.2734C241.824 52.362 241.628 51.5482 241.4 50.832C241.205 50.0833 241.01 49.6439 240.815 49.5137C240.749 49.4811 240.587 49.4486 240.326 49.416C240.098 49.3835 239.838 49.3509 239.545 49.3184C239.285 49.2858 239.024 49.2695 238.764 49.2695C238.503 49.2695 238.324 49.2695 238.227 49.2695C238.064 49.2695 237.836 49.2695 237.543 49.2695C237.283 49.2695 236.99 49.2858 236.664 49.3184C236.371 49.3184 236.078 49.3509 235.785 49.416C235.525 49.4811 235.346 49.5625 235.248 49.6602C235.183 49.6927 235.102 49.9043 235.004 50.2949C234.906 50.6855 234.776 51.1738 234.613 51.7598C234.483 52.3132 234.337 52.9154 234.174 53.5664C234.044 54.2174 233.913 54.8359 233.783 55.4219C233.653 56.0078 233.539 56.5124 233.441 56.9355C233.376 57.3587 233.328 57.6029 233.295 57.668L242.67 57.4238ZM297.943 57.2773C297.943 60.1419 297.927 62.974 297.895 65.7734C297.895 68.5404 297.878 71.3561 297.846 74.2207C295.828 74.123 293.826 74.0742 291.84 74.0742C290.863 74.0742 289.871 74.123 288.861 74.2207C287.885 74.3184 286.908 74.4486 285.932 74.6113C284.695 71.9095 283.458 69.2402 282.221 66.6035C280.984 63.9342 279.747 61.2487 278.51 58.5469C277.598 56.5612 276.736 54.5755 275.922 52.5898C275.108 50.6042 274.294 48.6022 273.481 46.584C273.188 50.9785 272.878 55.3568 272.553 59.7188C272.26 64.0482 272.016 68.4102 271.82 72.8047L261.273 72.5117C261.111 66.2617 260.964 60.0443 260.834 53.8594C260.704 47.6745 260.476 41.457 260.15 35.207L279.242 35.1094C279.893 36.737 280.496 38.3809 281.049 40.041C281.635 41.6686 282.188 43.3288 282.709 45.0215C283.458 47.5931 284.304 50.1484 285.248 52.6875C286.192 55.194 287.136 57.7168 288.08 60.2559C288.048 56.1868 287.966 52.1341 287.836 48.0977C287.738 44.0612 287.657 39.9922 287.592 35.8906L297.455 37.0625C297.585 40.4479 297.699 43.8171 297.797 47.1699C297.895 50.5228 297.943 53.8919 297.943 57.2773ZM333.393 44.582V48L323.969 48.4883C323.839 50.3763 323.741 52.248 323.676 54.1035C323.611 55.959 323.578 57.8145 323.578 59.6699C323.578 61.9486 323.513 64.2272 323.383 66.5059C323.285 68.752 323.155 70.998 322.992 73.2441C321.82 73.3092 320.648 73.3581 319.477 73.3906C318.305 73.4557 317.133 73.4883 315.961 73.4883C315.538 73.4883 315.115 73.472 314.691 73.4395C314.301 73.4395 313.91 73.4395 313.52 73.4395C313.585 71.4538 313.634 69.4844 313.666 67.5312C313.731 65.5456 313.764 63.5762 313.764 61.623C313.764 59.6699 313.715 57.7168 313.617 55.7637C313.52 53.778 313.406 51.7923 313.275 49.8066C312.331 49.8392 311.371 49.8717 310.395 49.9043C309.451 49.9368 308.49 49.9531 307.514 49.9531C306.96 49.9531 306.407 49.9531 305.854 49.9531C305.333 49.9531 304.796 49.9368 304.242 49.9043C304.145 47.4954 304.079 45.1029 304.047 42.7266C304.014 40.3503 303.982 37.974 303.949 35.5977C308.832 35.6953 313.682 35.8418 318.5 36.0371C323.318 36.1999 328.152 36.3464 333.002 36.4766C333.132 37.8763 333.23 39.2435 333.295 40.5781C333.36 41.8802 333.393 43.2148 333.393 44.582ZM369.184 72.8535L361.762 73.9766C361.241 72.3164 360.72 70.6725 360.199 69.0449C359.678 67.3848 359.174 65.7246 358.686 64.0645L346.674 64.5039L345.16 70.998H337.641C338.096 65.4642 338.568 59.9629 339.057 54.4941C339.545 49.0254 340.017 43.5404 340.473 38.0391C342.816 37.6484 345.144 37.3229 347.455 37.0625C349.799 36.8021 352.159 36.6719 354.535 36.6719C357.432 36.6719 360.329 36.7207 363.227 36.8184C363.747 40.2038 364.252 43.5892 364.74 46.9746C365.261 50.3275 365.798 53.6966 366.352 57.082C366.742 59.7513 367.165 62.388 367.621 64.9922C368.109 67.5964 368.63 70.2168 369.184 72.8535ZM356.977 57.4238C356.944 57.1309 356.863 56.5938 356.732 55.8125C356.602 54.9987 356.456 54.1523 356.293 53.2734C356.13 52.362 355.935 51.5482 355.707 50.832C355.512 50.0833 355.316 49.6439 355.121 49.5137C355.056 49.4811 354.893 49.4486 354.633 49.416C354.405 49.3835 354.145 49.3509 353.852 49.3184C353.591 49.2858 353.331 49.2695 353.07 49.2695C352.81 49.2695 352.631 49.2695 352.533 49.2695C352.371 49.2695 352.143 49.2695 351.85 49.2695C351.589 49.2695 351.296 49.2858 350.971 49.3184C350.678 49.3184 350.385 49.3509 350.092 49.416C349.831 49.4811 349.652 49.5625 349.555 49.6602C349.49 49.6927 349.408 49.9043 349.311 50.2949C349.213 50.6855 349.083 51.1738 348.92 51.7598C348.79 52.3132 348.643 52.9154 348.481 53.5664C348.35 54.2174 348.22 54.8359 348.09 55.4219C347.96 56.0078 347.846 56.5124 347.748 56.9355C347.683 57.3587 347.634 57.6029 347.602 57.668L356.977 57.4238ZM410.932 64.4062C410.932 65.9688 410.557 67.2383 409.809 68.2148C409.06 69.1589 408.002 69.9238 406.635 70.5098C405.496 70.998 404.063 71.3887 402.338 71.6816C400.613 71.9421 398.822 72.1374 396.967 72.2676C395.111 72.3652 393.288 72.4303 391.498 72.4629C389.708 72.4954 388.21 72.5117 387.006 72.5117C384.955 72.5117 382.921 72.4792 380.902 72.4141C378.917 72.349 376.898 72.2513 374.848 72.1211C374.945 68.8008 374.848 65.513 374.555 62.2578C376.996 62.3229 379.421 62.388 381.83 62.4531C384.272 62.4857 386.713 62.5345 389.154 62.5996C390.098 62.6322 391.042 62.6647 391.986 62.6973C392.963 62.7298 393.94 62.7461 394.916 62.7461C395.079 62.7461 395.323 62.7461 395.648 62.7461C395.974 62.7461 396.316 62.7298 396.674 62.6973C397.032 62.6647 397.357 62.6159 397.65 62.5508C397.976 62.4857 398.22 62.388 398.383 62.2578C398.513 62.1276 398.594 61.9486 398.627 61.7207C398.66 61.4603 398.676 61.2324 398.676 61.0371C398.676 60.679 398.627 60.2559 398.529 59.7676C398.432 59.2467 398.285 58.8236 398.09 58.498C398.057 58.4655 397.943 58.4329 397.748 58.4004C397.585 58.3678 397.39 58.3516 397.162 58.3516C396.934 58.319 396.723 58.3027 396.527 58.3027C396.332 58.2702 396.218 58.2539 396.186 58.2539C394.102 58.0911 392.019 57.9772 389.936 57.9121C387.885 57.847 385.818 57.7331 383.734 57.5703C382.79 57.4727 381.814 57.375 380.805 57.2773C379.828 57.1797 378.917 57.0007 378.07 56.7402C377.257 56.5124 376.557 56.0078 375.971 55.2266C375.417 54.4128 374.962 53.5013 374.604 52.4922C374.278 51.4505 374.034 50.4089 373.871 49.3672C373.741 48.3255 373.676 47.4466 373.676 46.7305C373.676 45.5586 373.79 44.4518 374.018 43.4102C374.246 42.3359 374.604 41.3431 375.092 40.4316C375.613 39.5202 376.264 38.7227 377.045 38.0391C377.826 37.3229 378.787 36.737 379.926 36.2812C381.879 35.5326 383.962 35.0117 386.176 34.7188C388.422 34.4258 390.57 34.2793 392.621 34.2793C395.03 34.2793 397.406 34.4258 399.75 34.7188C402.094 35.0117 404.438 35.3861 406.781 35.8418C406.749 36.7858 406.716 37.7298 406.684 38.6738C406.684 39.5853 406.684 40.513 406.684 41.457C406.684 42.401 406.732 43.3613 406.83 44.3379C406.928 45.2819 407.025 46.2259 407.123 47.1699C404.031 47.235 400.938 47.3001 397.846 47.3652C394.786 47.3978 391.693 47.4792 388.568 47.6094C388.178 47.6094 387.641 47.6257 386.957 47.6582C386.306 47.6908 385.671 47.7396 385.053 47.8047C384.434 47.8372 383.897 47.8698 383.441 47.9023C382.986 47.9349 382.758 47.9512 382.758 47.9512C382.595 48.3092 382.497 48.6836 382.465 49.0742C382.432 49.4323 382.416 49.8066 382.416 50.1973C382.416 50.3926 382.416 50.6367 382.416 50.9297C382.449 51.2227 382.53 51.4505 382.66 51.6133C382.693 51.6458 382.969 51.6947 383.49 51.7598C384.011 51.8249 384.581 51.89 385.199 51.9551C385.85 52.0202 386.453 52.0853 387.006 52.1504C387.592 52.2155 387.95 52.248 388.08 52.248C389.154 52.3457 390.408 52.4596 391.84 52.5898C393.305 52.7201 394.786 52.8665 396.283 53.0293C397.813 53.1921 399.278 53.4036 400.678 53.6641C402.078 53.8919 403.298 54.1686 404.34 54.4941C405.284 54.8197 406.147 55.3405 406.928 56.0566C407.742 56.7402 408.441 57.554 409.027 58.498C409.613 59.4095 410.069 60.3861 410.395 61.4277C410.753 62.4368 410.932 63.4297 410.932 64.4062ZM443.891 44.582V48L434.467 48.4883C434.337 50.3763 434.239 52.248 434.174 54.1035C434.109 55.959 434.076 57.8145 434.076 59.6699C434.076 61.9486 434.011 64.2272 433.881 66.5059C433.783 68.752 433.653 70.998 433.49 73.2441C432.318 73.3092 431.147 73.3581 429.975 73.3906C428.803 73.4557 427.631 73.4883 426.459 73.4883C426.036 73.4883 425.613 73.472 425.19 73.4395C424.799 73.4395 424.408 73.4395 424.018 73.4395C424.083 71.4538 424.132 69.4844 424.164 67.5312C424.229 65.5456 424.262 63.5762 424.262 61.623C424.262 59.6699 424.213 57.7168 424.115 55.7637C424.018 53.778 423.904 51.7923 423.773 49.8066C422.829 49.8392 421.869 49.8717 420.893 49.9043C419.949 49.9368 418.988 49.9531 418.012 49.9531C417.458 49.9531 416.905 49.9531 416.352 49.9531C415.831 49.9531 415.294 49.9368 414.74 49.9043C414.643 47.4954 414.578 45.1029 414.545 42.7266C414.512 40.3503 414.48 37.974 414.447 35.5977C419.33 35.6953 424.18 35.8418 428.998 36.0371C433.816 36.1999 438.65 36.3464 443.5 36.4766C443.63 37.8763 443.728 39.2435 443.793 40.5781C443.858 41.8802 443.891 43.2148 443.891 44.582ZM468.354 37.1602C468.191 39.1458 468.126 41.1315 468.158 43.1172C468.191 45.0703 468.175 47.0234 468.109 48.9766L462.69 48.7812C462.657 49.9206 462.624 51.0436 462.592 52.1504C462.592 53.2572 462.592 54.3802 462.592 55.5195C462.592 56.8867 462.592 58.2376 462.592 59.5723C462.624 60.8743 462.657 62.209 462.69 63.5762L467.67 63.6738C467.605 64.6178 467.572 65.5781 467.572 66.5547C467.572 67.5312 467.572 68.5078 467.572 69.4844C467.572 70.2982 467.589 71.112 467.621 71.9258C467.686 72.7396 467.8 73.5371 467.963 74.3184L450.434 74.6113C450.434 73.0163 450.417 71.4538 450.385 69.9238C450.352 68.3613 450.287 66.7826 450.19 65.1875L453.363 65.1387C453.201 62.0788 453.005 59.0514 452.777 56.0566C452.582 53.0618 452.371 50.0508 452.143 47.0234L447.504 46.4375C447.439 45.0703 447.374 43.7194 447.309 42.3848C447.276 41.0176 447.227 39.6504 447.162 38.2832C450.71 38.153 454.226 38.0065 457.709 37.8438C461.225 37.6484 464.773 37.4206 468.354 37.1602ZM505.854 61.4277L505.805 69.0449C504.307 69.3379 502.826 69.6146 501.361 69.875C499.897 70.1354 498.415 70.3633 496.918 70.5586C495.356 70.7539 493.793 70.9329 492.231 71.0957C490.668 71.2585 489.106 71.3398 487.543 71.3398C487.087 71.3398 486.42 71.3236 485.541 71.291C484.662 71.2585 483.751 71.1934 482.807 71.0957C481.863 70.998 480.968 70.8841 480.121 70.7539C479.275 70.5911 478.656 70.3958 478.266 70.168C477.908 69.9401 477.566 69.6797 477.24 69.3867C476.915 69.0612 476.622 68.7357 476.361 68.4102C475.678 67.5638 475.108 66.6361 474.652 65.627C474.197 64.6178 473.839 63.5762 473.578 62.502C473.318 61.4277 473.122 60.3372 472.992 59.2305C472.895 58.1237 472.846 57.0332 472.846 55.959C472.846 54.6569 472.911 53.306 473.041 51.9062C473.204 50.5065 473.448 49.123 473.773 47.7559C474.099 46.3887 474.522 45.0703 475.043 43.8008C475.596 42.5312 476.264 41.3594 477.045 40.2852C477.273 39.9922 477.566 39.6341 477.924 39.2109C478.282 38.7878 478.64 38.4785 478.998 38.2832C479.877 37.7949 480.854 37.388 481.928 37.0625C483.035 36.737 484.174 36.4928 485.346 36.3301C486.518 36.1348 487.673 36.0046 488.813 35.9395C489.984 35.8418 491.059 35.793 492.035 35.793C493.891 35.793 495.746 35.9069 497.602 36.1348C499.457 36.3301 501.264 36.6882 503.022 37.209C502.956 38.0879 502.908 38.9831 502.875 39.8945C502.843 40.7734 502.826 41.6523 502.826 42.5312C502.826 44.6471 502.875 46.7793 502.973 48.9277C501.508 48.3743 499.978 47.9837 498.383 47.7559C496.788 47.4954 495.209 47.3652 493.647 47.3652C493.321 47.3652 492.849 47.3978 492.231 47.4629C491.612 47.4954 490.912 47.5605 490.131 47.6582C489.35 47.7233 488.536 47.821 487.69 47.9512C486.876 48.0814 486.111 48.2441 485.395 48.4395C484.678 48.6348 484.044 48.8626 483.49 49.123C482.969 49.3835 482.628 49.6602 482.465 49.9531C482.335 50.2135 482.221 50.5879 482.123 51.0762C482.058 51.5319 481.993 52.0202 481.928 52.541C481.895 53.0618 481.863 53.5664 481.83 54.0547C481.83 54.543 481.83 54.9336 481.83 55.2266C481.83 55.5195 481.863 56.1055 481.928 56.9844C481.993 57.8633 482.074 58.8073 482.172 59.8164C482.27 60.793 482.384 61.6882 482.514 62.502C482.676 63.3158 482.839 63.7878 483.002 63.918C483.165 64.0156 483.425 64.0807 483.783 64.1133C484.174 64.1133 484.434 64.1133 484.565 64.1133C486.16 64.1133 487.869 64.0319 489.691 63.8691C491.514 63.7064 493.354 63.4948 495.209 63.2344C497.097 62.9414 498.953 62.6484 500.775 62.3555C502.598 62.0299 504.291 61.7207 505.854 61.4277ZM521.674 35.4512C521.641 36.2975 521.593 37.2253 521.527 38.2344C521.495 39.2435 521.446 40.2689 521.381 41.3105C521.316 42.3522 521.218 43.3776 521.088 44.3867C520.99 45.3633 520.86 46.2747 520.697 47.1211C520.209 49.5625 519.704 51.9714 519.184 54.3477C518.695 56.724 518.207 59.1328 517.719 61.5742L512.348 62.0625L511.127 49.7578C510.899 47.5443 510.736 45.3307 510.639 43.1172C510.541 40.8711 510.427 38.625 510.297 36.3789L521.674 35.4512ZM520.795 69.0938C520.795 69.6471 520.616 70.2005 520.258 70.7539C519.932 71.2747 519.509 71.7467 518.988 72.1699C518.468 72.5931 517.898 72.9186 517.279 73.1465C516.661 73.4069 516.091 73.5371 515.57 73.5371C515.082 73.5371 514.561 73.4395 514.008 73.2441C513.487 73.0814 512.999 72.8535 512.543 72.5605C512.12 72.235 511.762 71.8444 511.469 71.3887C511.208 70.9329 511.078 70.4121 511.078 69.8262C511.078 69.2077 511.257 68.6543 511.615 68.166C512.006 67.6452 512.462 67.222 512.982 66.8965C513.536 66.5384 514.122 66.278 514.74 66.1152C515.391 65.9199 515.994 65.8223 516.547 65.8223C517.458 65.8223 518.272 66.0339 518.988 66.457C519.737 66.8802 520.29 67.515 520.648 68.3613C520.714 68.4915 520.746 68.6217 520.746 68.752C520.779 68.8496 520.795 68.9635 520.795 69.0938Z" fill="white"/>
<defs>
<filter id="filter0_d_2540_1880" x="0.980469" y="62" width="663.711" height="580" filterUnits="userSpaceOnUse" color-interpolation-filters="sRGB">
<feFlood flood-opacity="0" result="BackgroundImageFix"/>
<feColorMatrix in="SourceAlpha" type="matrix" values="0 0 0 0 0 0 0 0 0 0 0 0 0 0 0 0 0 0 127 0" result="hardAlpha"/>
<feOffset dy="4"/>
<feGaussianBlur stdDeviation="2"/>
<feComposite in2="hardAlpha" operator="out"/>
<feColorMatrix type="matrix" values="0 0 0 0 0 0 0 0 0 0 0 0 0 0 0 0 0 0 0.85 0"/>
<feBlend mode="normal" in2="BackgroundImageFix" result="effect1_dropShadow_2540_1880"/>
<feBlend mode="normal" in="SourceGraphic" in2="effect1_dropShadow_2540_1880" result="shape"/>
</filter>
<filter id="filter1_i_2540_1880" x="46.8525" y="58.4565" width="573.131" height="509.684" filterUnits="userSpaceOnUse" color-interpolation-filters="sRGB">
<feFlood flood-opacity="0" result="BackgroundImageFix"/>
<feBlend mode="normal" in="SourceGraphic" in2="BackgroundImageFix" result="shape"/>
<feColorMatrix in="SourceAlpha" type="matrix" values="0 0 0 0 0 0 0 0 0 0 0 0 0 0 0 0 0 0 127 0" result="hardAlpha"/>
<feOffset dx="8" dy="8"/>
<feGaussianBlur stdDeviation="2"/>
<feComposite in2="hardAlpha" operator="arithmetic" k2="-1" k3="1"/>
<feColorMatrix type="matrix" values="0 0 0 0 0 0 0 0 0 0 0 0 0 0 0 0 0 0 0.38 0"/>
<feBlend mode="normal" in2="shape" result="effect1_innerShadow_2540_1880"/>
</filter>
</defs>
</svg>
