<svg width="1101" height="782" viewBox="0 0 1101 782" fill="none" xmlns="http://www.w3.org/2000/svg">
<g filter="url(#filter0_d_2686_38)">
<rect x="41" y="155" width="1007" height="619" rx="52" fill="#1565FF"/>
<rect x="4" y="67" width="1093" height="671.944" rx="30" fill="#4A88FF"/>
<g filter="url(#filter1_i_2686_38)">
<path d="M50 139C50 122.431 63.4315 109 80 109H1016C1032.57 109 1046 122.431 1046 139V675C1046 691.569 1032.57 705 1016 705H80C63.4315 705 50 691.569 50 675V139Z" fill="#98BBFF"/>
</g>
<g filter="url(#filter2_d_2686_38)">
<mask id="path-4-outside-1_2686_38" maskUnits="userSpaceOnUse" x="360" y="4" width="388" height="198" fill="black">
<rect fill="white" x="360" y="4" width="388" height="198"/>
<path d="M434.703 74.3886L442.188 42.466C442.188 42.466 442.453 41.4512 442.984 39.4217C443.655 37.3672 445.246 35.15 447.757 32.7702C450.409 30.3653 454.717 28.7095 460.682 27.8029C466.622 26.7518 470.695 27.1477 472.901 28.9908C475.224 30.6643 476.347 32.9968 476.271 35.9881C476.312 38.8099 475.833 41.5747 474.835 44.2826C474.232 45.8784 473.092 48.6113 471.417 52.4812C469.883 56.3261 468.14 60.6548 466.187 65.4672C464.234 70.2796 462.328 74.935 460.468 79.4332C458.583 83.7869 457.012 87.415 455.756 90.3175C454.641 93.1949 454.083 94.6336 454.083 94.6336L499.915 139.456C499.915 139.456 500.366 139.972 501.269 141.003C502.148 141.89 502.734 143.201 503.028 144.936C503.463 146.645 502.979 148.518 501.576 150.553C500.314 152.563 497.459 154.631 493.012 156.758C488.565 158.885 484.547 159.671 480.956 159.115C477.507 158.534 474.551 157.419 472.087 155.771C469.598 153.978 467.711 152.302 466.428 150.742C465.144 149.182 464.502 148.403 464.502 148.403L446.998 122.465L441.394 155.172C441.394 155.172 441.15 155.885 440.663 157.311C440.152 158.593 438.663 160.122 436.196 161.899C433.871 163.65 429.879 165.026 424.222 166.028C418.564 167.029 414.433 166.717 411.827 165.094C409.338 163.301 407.874 161.103 407.433 158.501C406.968 155.755 407.071 153.354 407.743 151.299C408.112 150.043 409.006 147.577 410.423 143.902C411.815 140.082 413.417 135.778 415.228 130.991C417.039 126.203 418.804 121.573 420.523 117.1C422.218 112.482 423.622 108.734 424.737 105.857C425.969 102.81 426.585 101.286 426.585 101.286L387.547 61.7387C387.547 61.7387 387.013 61.1633 385.944 60.0124C385.016 58.8364 384.393 57.3088 384.075 55.4295C383.757 53.5502 384.453 51.6402 386.164 49.6996C387.874 47.759 391.439 46.0116 396.857 44.4573C401.451 43.1977 405.331 42.8833 408.497 43.5143C411.638 44.0006 414.134 44.9735 415.983 46.433C417.95 47.7229 419.326 48.9683 420.112 50.1692C421.04 51.3452 421.504 51.9331 421.504 51.9331L434.703 74.3886Z"/>
<path d="M552.89 56.3612C557.434 59.2047 560.401 62.1429 561.789 65.176C563.178 68.209 564.02 70.017 564.315 70.5999C565.051 72.0572 565.63 73.4873 566.05 74.8901C566.586 76.3795 566.854 77.1241 566.854 77.1241C566.854 77.1241 567.512 78.0689 568.829 79.9585C570.145 81.848 571.16 84.7835 571.872 88.7648C572.669 92.6275 572.403 97.6052 571.075 103.698C569.748 109.79 566.424 116.937 561.104 125.138C557.53 130.644 553.504 134.543 549.026 136.834C544.633 139.007 540.025 140.111 535.202 140.147C530.58 140.151 526.006 139.465 521.48 138.089C517.155 136.68 513.2 135.002 509.615 133.056C506.146 131.195 503.325 129.546 501.153 128.108C499.097 126.757 498.069 126.082 498.069 126.082C498.069 126.082 496.909 125.217 494.59 123.488C492.387 121.845 489.857 119.414 487.002 116.196C484.231 112.859 481.968 108.81 480.212 104.051C478.657 99.2593 478.385 93.7901 479.396 87.6432C480.523 81.5828 483.867 74.9054 489.428 67.6109C494.989 60.3165 500.679 55.2065 506.498 52.281C512.518 49.3235 518.24 47.7785 523.664 47.6462C529.205 47.6003 534.137 48.2817 538.462 49.6902C542.903 51.1852 546.368 52.6788 548.856 54.171C551.545 55.6311 552.89 56.3612 552.89 56.3612ZM541.151 74.3038C541.151 74.3038 539.72 74.69 536.859 75.4625C534.114 76.3214 530.761 77.9076 526.801 80.2209C522.956 82.6207 519.384 86.132 516.085 90.7546C512.871 95.2588 510.855 99.2037 510.037 102.59C509.22 105.975 508.968 108.693 509.282 110.743C509.796 112.761 510.401 114.029 511.097 114.548C511.793 115.067 513.106 115.592 515.037 116.123C517.168 116.622 519.717 116.162 522.684 114.743C525.652 113.323 528.896 110.022 532.418 104.839C535.347 100.485 537.336 96.702 538.385 93.4891C539.551 90.3627 540.214 87.3165 540.377 84.3504C540.74 81.3522 540.998 78.0034 541.151 74.3038Z"/>
<path d="M690.151 83.4988C695.409 84.3796 699.241 85.9567 701.647 88.23C704.053 90.5033 705.499 91.8531 705.988 92.2792C707.208 93.3447 708.271 94.446 709.178 95.5832C710.225 96.7557 710.748 97.3419 710.748 97.3419C710.748 97.3419 711.706 97.963 713.623 99.2053C715.539 100.447 717.562 102.775 719.691 106.187C721.855 109.457 723.447 114.169 724.466 120.324C725.485 126.478 725.045 134.378 723.146 144.024C721.868 150.503 719.579 155.666 716.278 159.515C713.011 163.221 709.151 166.02 704.698 167.914C700.419 169.7 695.93 170.828 691.231 171.299C686.706 171.662 682.424 171.634 678.385 171.213C674.485 170.829 671.264 170.389 668.722 169.895C666.319 169.437 665.118 169.207 665.118 169.207C665.118 169.207 663.725 168.854 660.938 168.147C658.292 167.475 655.052 166.2 651.219 164.32C647.422 162.298 643.831 159.422 640.448 155.691C637.239 151.854 634.969 146.894 633.636 140.811C632.443 134.764 633.075 127.29 635.532 118.39C637.99 109.49 641.373 102.564 645.682 97.6106C650.165 92.5503 654.894 88.9129 659.868 86.6984C664.983 84.5193 669.802 83.2481 674.327 82.8847C678.992 82.5566 682.752 82.6038 685.607 83.026C688.636 83.3412 690.151 83.4988 690.151 83.4988ZM685.903 104.642C685.903 104.642 684.72 105.552 682.356 107.37C680.131 109.224 677.611 111.986 674.797 115.656C672.123 119.361 670.111 123.99 668.762 129.544C667.448 134.955 667.037 139.385 667.53 142.836C668.023 146.287 668.793 148.901 669.84 150.678C671.061 152.349 672.09 153.29 672.926 153.502C673.761 153.714 675.171 153.694 677.155 153.442C679.313 153.082 681.504 151.673 683.728 149.214C685.952 146.755 687.738 142.447 689.086 136.288C690.192 131.127 690.638 126.856 690.424 123.476C690.349 120.131 689.839 117.054 688.894 114.245C688.124 111.328 687.127 108.127 685.903 104.642Z"/>
<path d="M614.701 75.7532L638.629 53.857C638.629 53.857 639.412 53.1768 640.978 51.8164C642.674 50.5177 645.217 49.62 648.606 49.1232C652.126 48.688 656.59 49.8324 662 52.5563C667.469 55.1471 670.598 57.8418 671.386 60.6404C672.365 63.3676 671.99 65.939 670.262 68.3546C668.724 70.6987 666.792 72.6939 664.463 74.34C663.078 75.301 660.62 76.8855 657.088 79.0933C653.686 81.3628 649.842 83.9083 645.557 86.7297C641.272 89.5512 637.113 92.2704 633.079 94.8873C629.105 97.3711 625.794 99.4409 623.145 101.097C620.626 102.814 619.366 103.673 619.366 103.673L632.099 167.188C632.099 167.188 632.183 167.875 632.351 169.248C632.58 170.488 632.332 171.907 631.608 173.505C631.014 175.164 629.574 176.422 627.287 177.279C625.13 178.198 621.631 178.238 616.79 177.401C611.949 176.563 608.207 174.872 605.564 172.327C603.052 169.843 601.241 167.207 600.132 164.418C599.084 161.496 598.466 159.02 598.279 156.991C598.091 154.962 597.998 153.947 597.998 153.947L598.045 122.438L575.227 146.073C575.227 146.073 574.63 146.517 573.436 147.407C572.302 148.164 570.226 148.555 567.208 148.581C564.321 148.669 560.273 147.479 555.063 145.011C549.854 142.544 546.63 139.885 545.391 137.034C544.343 134.112 544.362 131.453 545.448 129.057C546.595 126.528 548.016 124.614 549.712 123.315C550.716 122.497 552.823 120.989 556.035 118.791C559.306 116.46 563.02 113.853 567.174 110.969C571.329 108.086 575.358 105.305 579.262 102.627C583.226 99.8151 586.468 97.5505 588.987 95.8329C591.696 94.0439 593.051 93.1494 593.051 93.1494L582.968 37.9233C582.968 37.9233 582.849 37.1392 582.611 35.571C582.503 34.0646 582.841 32.4461 583.625 30.7156C584.41 28.9851 586.046 27.8195 588.533 27.2188C591.02 26.6181 594.924 27.2544 600.244 29.1276C604.723 30.7639 608.089 32.7622 610.341 35.1225C612.653 37.3497 614.164 39.6012 614.872 41.8771C615.771 44.0816 616.21 45.9063 616.187 47.3511C616.295 48.8575 616.349 49.6108 616.349 49.6108L614.701 75.7532Z"/>
</mask>
<path d="M434.703 74.3886L442.188 42.466C442.188 42.466 442.453 41.4512 442.984 39.4217C443.655 37.3672 445.246 35.15 447.757 32.7702C450.409 30.3653 454.717 28.7095 460.682 27.8029C466.622 26.7518 470.695 27.1477 472.901 28.9908C475.224 30.6643 476.347 32.9968 476.271 35.9881C476.312 38.8099 475.833 41.5747 474.835 44.2826C474.232 45.8784 473.092 48.6113 471.417 52.4812C469.883 56.3261 468.14 60.6548 466.187 65.4672C464.234 70.2796 462.328 74.935 460.468 79.4332C458.583 83.7869 457.012 87.415 455.756 90.3175C454.641 93.1949 454.083 94.6336 454.083 94.6336L499.915 139.456C499.915 139.456 500.366 139.972 501.269 141.003C502.148 141.89 502.734 143.201 503.028 144.936C503.463 146.645 502.979 148.518 501.576 150.553C500.314 152.563 497.459 154.631 493.012 156.758C488.565 158.885 484.547 159.671 480.956 159.115C477.507 158.534 474.551 157.419 472.087 155.771C469.598 153.978 467.711 152.302 466.428 150.742C465.144 149.182 464.502 148.403 464.502 148.403L446.998 122.465L441.394 155.172C441.394 155.172 441.15 155.885 440.663 157.311C440.152 158.593 438.663 160.122 436.196 161.899C433.871 163.65 429.879 165.026 424.222 166.028C418.564 167.029 414.433 166.717 411.827 165.094C409.338 163.301 407.874 161.103 407.433 158.501C406.968 155.755 407.071 153.354 407.743 151.299C408.112 150.043 409.006 147.577 410.423 143.902C411.815 140.082 413.417 135.778 415.228 130.991C417.039 126.203 418.804 121.573 420.523 117.1C422.218 112.482 423.622 108.734 424.737 105.857C425.969 102.81 426.585 101.286 426.585 101.286L387.547 61.7387C387.547 61.7387 387.013 61.1633 385.944 60.0124C385.016 58.8364 384.393 57.3088 384.075 55.4295C383.757 53.5502 384.453 51.6402 386.164 49.6996C387.874 47.759 391.439 46.0116 396.857 44.4573C401.451 43.1977 405.331 42.8833 408.497 43.5143C411.638 44.0006 414.134 44.9735 415.983 46.433C417.95 47.7229 419.326 48.9683 420.112 50.1692C421.04 51.3452 421.504 51.9331 421.504 51.9331L434.703 74.3886Z" fill="#4A88FF"/>
<path d="M552.89 56.3612C557.434 59.2047 560.401 62.1429 561.789 65.176C563.178 68.209 564.02 70.017 564.315 70.5999C565.051 72.0572 565.63 73.4873 566.05 74.8901C566.586 76.3795 566.854 77.1241 566.854 77.1241C566.854 77.1241 567.512 78.0689 568.829 79.9585C570.145 81.848 571.16 84.7835 571.872 88.7648C572.669 92.6275 572.403 97.6052 571.075 103.698C569.748 109.79 566.424 116.937 561.104 125.138C557.53 130.644 553.504 134.543 549.026 136.834C544.633 139.007 540.025 140.111 535.202 140.147C530.58 140.151 526.006 139.465 521.48 138.089C517.155 136.68 513.2 135.002 509.615 133.056C506.146 131.195 503.325 129.546 501.153 128.108C499.097 126.757 498.069 126.082 498.069 126.082C498.069 126.082 496.909 125.217 494.59 123.488C492.387 121.845 489.857 119.414 487.002 116.196C484.231 112.859 481.968 108.81 480.212 104.051C478.657 99.2593 478.385 93.7901 479.396 87.6432C480.523 81.5828 483.867 74.9054 489.428 67.6109C494.989 60.3165 500.679 55.2065 506.498 52.281C512.518 49.3235 518.24 47.7785 523.664 47.6462C529.205 47.6003 534.137 48.2817 538.462 49.6902C542.903 51.1852 546.368 52.6788 548.856 54.171C551.545 55.6311 552.89 56.3612 552.89 56.3612ZM541.151 74.3038C541.151 74.3038 539.72 74.69 536.859 75.4625C534.114 76.3214 530.761 77.9076 526.801 80.2209C522.956 82.6207 519.384 86.132 516.085 90.7546C512.871 95.2588 510.855 99.2037 510.037 102.59C509.22 105.975 508.968 108.693 509.282 110.743C509.796 112.761 510.401 114.029 511.097 114.548C511.793 115.067 513.106 115.592 515.037 116.123C517.168 116.622 519.717 116.162 522.684 114.743C525.652 113.323 528.896 110.022 532.418 104.839C535.347 100.485 537.336 96.702 538.385 93.4891C539.551 90.3627 540.214 87.3165 540.377 84.3504C540.74 81.3522 540.998 78.0034 541.151 74.3038Z" fill="#FFC121"/>
<path d="M690.151 83.4988C695.409 84.3796 699.241 85.9567 701.647 88.23C704.053 90.5033 705.499 91.8531 705.988 92.2792C707.208 93.3447 708.271 94.446 709.178 95.5832C710.225 96.7557 710.748 97.3419 710.748 97.3419C710.748 97.3419 711.706 97.963 713.623 99.2053C715.539 100.447 717.562 102.775 719.691 106.187C721.855 109.457 723.447 114.169 724.466 120.324C725.485 126.478 725.045 134.378 723.146 144.024C721.868 150.503 719.579 155.666 716.278 159.515C713.011 163.221 709.151 166.02 704.698 167.914C700.419 169.7 695.93 170.828 691.231 171.299C686.706 171.662 682.424 171.634 678.385 171.213C674.485 170.829 671.264 170.389 668.722 169.895C666.319 169.437 665.118 169.207 665.118 169.207C665.118 169.207 663.725 168.854 660.938 168.147C658.292 167.475 655.052 166.2 651.219 164.32C647.422 162.298 643.831 159.422 640.448 155.691C637.239 151.854 634.969 146.894 633.636 140.811C632.443 134.764 633.075 127.29 635.532 118.39C637.99 109.49 641.373 102.564 645.682 97.6106C650.165 92.5503 654.894 88.9129 659.868 86.6984C664.983 84.5193 669.802 83.2481 674.327 82.8847C678.992 82.5566 682.752 82.6038 685.607 83.026C688.636 83.3412 690.151 83.4988 690.151 83.4988ZM685.903 104.642C685.903 104.642 684.72 105.552 682.356 107.37C680.131 109.224 677.611 111.986 674.797 115.656C672.123 119.361 670.111 123.99 668.762 129.544C667.448 134.955 667.037 139.385 667.53 142.836C668.023 146.287 668.793 148.901 669.84 150.678C671.061 152.349 672.09 153.29 672.926 153.502C673.761 153.714 675.171 153.694 677.155 153.442C679.313 153.082 681.504 151.673 683.728 149.214C685.952 146.755 687.738 142.447 689.086 136.288C690.192 131.127 690.638 126.856 690.424 123.476C690.349 120.131 689.839 117.054 688.894 114.245C688.124 111.328 687.127 108.127 685.903 104.642Z" fill="#FFC121"/>
<path d="M614.701 75.7532L638.629 53.857C638.629 53.857 639.412 53.1768 640.978 51.8164C642.674 50.5177 645.217 49.62 648.606 49.1232C652.126 48.688 656.59 49.8324 662 52.5563C667.469 55.1471 670.598 57.8418 671.386 60.6404C672.365 63.3676 671.99 65.939 670.262 68.3546C668.724 70.6987 666.792 72.6939 664.463 74.34C663.078 75.301 660.62 76.8855 657.088 79.0933C653.686 81.3628 649.842 83.9083 645.557 86.7297C641.272 89.5512 637.113 92.2704 633.079 94.8873C629.105 97.3711 625.794 99.4409 623.145 101.097C620.626 102.814 619.366 103.673 619.366 103.673L632.099 167.188C632.099 167.188 632.183 167.875 632.351 169.248C632.58 170.488 632.332 171.907 631.608 173.505C631.014 175.164 629.574 176.422 627.287 177.279C625.13 178.198 621.631 178.238 616.79 177.401C611.949 176.563 608.207 174.872 605.564 172.327C603.052 169.843 601.241 167.207 600.132 164.418C599.084 161.496 598.466 159.02 598.279 156.991C598.091 154.962 597.998 153.947 597.998 153.947L598.045 122.438L575.227 146.073C575.227 146.073 574.63 146.517 573.436 147.407C572.302 148.164 570.226 148.555 567.208 148.581C564.321 148.669 560.273 147.479 555.063 145.011C549.854 142.544 546.63 139.885 545.391 137.034C544.343 134.112 544.362 131.453 545.448 129.057C546.595 126.528 548.016 124.614 549.712 123.315C550.716 122.497 552.823 120.989 556.035 118.791C559.306 116.46 563.02 113.853 567.174 110.969C571.329 108.086 575.358 105.305 579.262 102.627C583.226 99.8151 586.468 97.5505 588.987 95.8329C591.696 94.0439 593.051 93.1494 593.051 93.1494L582.968 37.9233C582.968 37.9233 582.849 37.1392 582.611 35.571C582.503 34.0646 582.841 32.4461 583.625 30.7156C584.41 28.9851 586.046 27.8195 588.533 27.2188C591.02 26.6181 594.924 27.2544 600.244 29.1276C604.723 30.7639 608.089 32.7622 610.341 35.1225C612.653 37.3497 614.164 39.6012 614.872 41.8771C615.771 44.0816 616.21 45.9063 616.187 47.3511C616.295 48.8575 616.349 49.6108 616.349 49.6108L614.701 75.7532Z" fill="#4A88FF"/>
<path d="M434.703 74.3886L442.188 42.466C442.188 42.466 442.453 41.4512 442.984 39.4217C443.655 37.3672 445.246 35.15 447.757 32.7702C450.409 30.3653 454.717 28.7095 460.682 27.8029C466.622 26.7518 470.695 27.1477 472.901 28.9908C475.224 30.6643 476.347 32.9968 476.271 35.9881C476.312 38.8099 475.833 41.5747 474.835 44.2826C474.232 45.8784 473.092 48.6113 471.417 52.4812C469.883 56.3261 468.14 60.6548 466.187 65.4672C464.234 70.2796 462.328 74.935 460.468 79.4332C458.583 83.7869 457.012 87.415 455.756 90.3175C454.641 93.1949 454.083 94.6336 454.083 94.6336L499.915 139.456C499.915 139.456 500.366 139.972 501.269 141.003C502.148 141.89 502.734 143.201 503.028 144.936C503.463 146.645 502.979 148.518 501.576 150.553C500.314 152.563 497.459 154.631 493.012 156.758C488.565 158.885 484.547 159.671 480.956 159.115C477.507 158.534 474.551 157.419 472.087 155.771C469.598 153.978 467.711 152.302 466.428 150.742C465.144 149.182 464.502 148.403 464.502 148.403L446.998 122.465L441.394 155.172C441.394 155.172 441.15 155.885 440.663 157.311C440.152 158.593 438.663 160.122 436.196 161.899C433.871 163.65 429.879 165.026 424.222 166.028C418.564 167.029 414.433 166.717 411.827 165.094C409.338 163.301 407.874 161.103 407.433 158.501C406.968 155.755 407.071 153.354 407.743 151.299C408.112 150.043 409.006 147.577 410.423 143.902C411.815 140.082 413.417 135.778 415.228 130.991C417.039 126.203 418.804 121.573 420.523 117.1C422.218 112.482 423.622 108.734 424.737 105.857C425.969 102.81 426.585 101.286 426.585 101.286L387.547 61.7387C387.547 61.7387 387.013 61.1633 385.944 60.0124C385.016 58.8364 384.393 57.3088 384.075 55.4295C383.757 53.5502 384.453 51.6402 386.164 49.6996C387.874 47.759 391.439 46.0116 396.857 44.4573C401.451 43.1977 405.331 42.8833 408.497 43.5143C411.638 44.0006 414.134 44.9735 415.983 46.433C417.95 47.7229 419.326 48.9683 420.112 50.1692C421.04 51.3452 421.504 51.9331 421.504 51.9331L434.703 74.3886Z" stroke="white" stroke-width="46" mask="url(#path-4-outside-1_2686_38)"/>
<path d="M552.89 56.3612C557.434 59.2047 560.401 62.1429 561.789 65.176C563.178 68.209 564.02 70.017 564.315 70.5999C565.051 72.0572 565.63 73.4873 566.05 74.8901C566.586 76.3795 566.854 77.1241 566.854 77.1241C566.854 77.1241 567.512 78.0689 568.829 79.9585C570.145 81.848 571.16 84.7835 571.872 88.7648C572.669 92.6275 572.403 97.6052 571.075 103.698C569.748 109.79 566.424 116.937 561.104 125.138C557.53 130.644 553.504 134.543 549.026 136.834C544.633 139.007 540.025 140.111 535.202 140.147C530.58 140.151 526.006 139.465 521.48 138.089C517.155 136.68 513.2 135.002 509.615 133.056C506.146 131.195 503.325 129.546 501.153 128.108C499.097 126.757 498.069 126.082 498.069 126.082C498.069 126.082 496.909 125.217 494.59 123.488C492.387 121.845 489.857 119.414 487.002 116.196C484.231 112.859 481.968 108.81 480.212 104.051C478.657 99.2593 478.385 93.7901 479.396 87.6432C480.523 81.5828 483.867 74.9054 489.428 67.6109C494.989 60.3165 500.679 55.2065 506.498 52.281C512.518 49.3235 518.24 47.7785 523.664 47.6462C529.205 47.6003 534.137 48.2817 538.462 49.6902C542.903 51.1852 546.368 52.6788 548.856 54.171C551.545 55.6311 552.89 56.3612 552.89 56.3612ZM541.151 74.3038C541.151 74.3038 539.72 74.69 536.859 75.4625C534.114 76.3214 530.761 77.9076 526.801 80.2209C522.956 82.6207 519.384 86.132 516.085 90.7546C512.871 95.2588 510.855 99.2037 510.037 102.59C509.22 105.975 508.968 108.693 509.282 110.743C509.796 112.761 510.401 114.029 511.097 114.548C511.793 115.067 513.106 115.592 515.037 116.123C517.168 116.622 519.717 116.162 522.684 114.743C525.652 113.323 528.896 110.022 532.418 104.839C535.347 100.485 537.336 96.702 538.385 93.4891C539.551 90.3627 540.214 87.3165 540.377 84.3504C540.74 81.3522 540.998 78.0034 541.151 74.3038Z" stroke="white" stroke-width="46" mask="url(#path-4-outside-1_2686_38)"/>
<path d="M690.151 83.4988C695.409 84.3796 699.241 85.9567 701.647 88.23C704.053 90.5033 705.499 91.8531 705.988 92.2792C707.208 93.3447 708.271 94.446 709.178 95.5832C710.225 96.7557 710.748 97.3419 710.748 97.3419C710.748 97.3419 711.706 97.963 713.623 99.2053C715.539 100.447 717.562 102.775 719.691 106.187C721.855 109.457 723.447 114.169 724.466 120.324C725.485 126.478 725.045 134.378 723.146 144.024C721.868 150.503 719.579 155.666 716.278 159.515C713.011 163.221 709.151 166.02 704.698 167.914C700.419 169.7 695.93 170.828 691.231 171.299C686.706 171.662 682.424 171.634 678.385 171.213C674.485 170.829 671.264 170.389 668.722 169.895C666.319 169.437 665.118 169.207 665.118 169.207C665.118 169.207 663.725 168.854 660.938 168.147C658.292 167.475 655.052 166.2 651.219 164.32C647.422 162.298 643.831 159.422 640.448 155.691C637.239 151.854 634.969 146.894 633.636 140.811C632.443 134.764 633.075 127.29 635.532 118.39C637.99 109.49 641.373 102.564 645.682 97.6106C650.165 92.5503 654.894 88.9129 659.868 86.6984C664.983 84.5193 669.802 83.2481 674.327 82.8847C678.992 82.5566 682.752 82.6038 685.607 83.026C688.636 83.3412 690.151 83.4988 690.151 83.4988ZM685.903 104.642C685.903 104.642 684.72 105.552 682.356 107.37C680.131 109.224 677.611 111.986 674.797 115.656C672.123 119.361 670.111 123.99 668.762 129.544C667.448 134.955 667.037 139.385 667.53 142.836C668.023 146.287 668.793 148.901 669.84 150.678C671.061 152.349 672.09 153.29 672.926 153.502C673.761 153.714 675.171 153.694 677.155 153.442C679.313 153.082 681.504 151.673 683.728 149.214C685.952 146.755 687.738 142.447 689.086 136.288C690.192 131.127 690.638 126.856 690.424 123.476C690.349 120.131 689.839 117.054 688.894 114.245C688.124 111.328 687.127 108.127 685.903 104.642Z" stroke="white" stroke-width="46" mask="url(#path-4-outside-1_2686_38)"/>
<path d="M614.701 75.7532L638.629 53.857C638.629 53.857 639.412 53.1768 640.978 51.8164C642.674 50.5177 645.217 49.62 648.606 49.1232C652.126 48.688 656.59 49.8324 662 52.5563C667.469 55.1471 670.598 57.8418 671.386 60.6404C672.365 63.3676 671.99 65.939 670.262 68.3546C668.724 70.6987 666.792 72.6939 664.463 74.34C663.078 75.301 660.62 76.8855 657.088 79.0933C653.686 81.3628 649.842 83.9083 645.557 86.7297C641.272 89.5512 637.113 92.2704 633.079 94.8873C629.105 97.3711 625.794 99.4409 623.145 101.097C620.626 102.814 619.366 103.673 619.366 103.673L632.099 167.188C632.099 167.188 632.183 167.875 632.351 169.248C632.58 170.488 632.332 171.907 631.608 173.505C631.014 175.164 629.574 176.422 627.287 177.279C625.13 178.198 621.631 178.238 616.79 177.401C611.949 176.563 608.207 174.872 605.564 172.327C603.052 169.843 601.241 167.207 600.132 164.418C599.084 161.496 598.466 159.02 598.279 156.991C598.091 154.962 597.998 153.947 597.998 153.947L598.045 122.438L575.227 146.073C575.227 146.073 574.63 146.517 573.436 147.407C572.302 148.164 570.226 148.555 567.208 148.581C564.321 148.669 560.273 147.479 555.063 145.011C549.854 142.544 546.63 139.885 545.391 137.034C544.343 134.112 544.362 131.453 545.448 129.057C546.595 126.528 548.016 124.614 549.712 123.315C550.716 122.497 552.823 120.989 556.035 118.791C559.306 116.46 563.02 113.853 567.174 110.969C571.329 108.086 575.358 105.305 579.262 102.627C583.226 99.8151 586.468 97.5505 588.987 95.8329C591.696 94.0439 593.051 93.1494 593.051 93.1494L582.968 37.9233C582.968 37.9233 582.849 37.1392 582.611 35.571C582.503 34.0646 582.841 32.4461 583.625 30.7156C584.41 28.9851 586.046 27.8195 588.533 27.2188C591.02 26.6181 594.924 27.2544 600.244 29.1276C604.723 30.7639 608.089 32.7622 610.341 35.1225C612.653 37.3497 614.164 39.6012 614.872 41.8771C615.771 44.0816 616.21 45.9063 616.187 47.3511C616.295 48.8575 616.349 49.6108 616.349 49.6108L614.701 75.7532Z" stroke="white" stroke-width="46" mask="url(#path-4-outside-1_2686_38)"/>
</g>
<g filter="url(#filter3_d_2686_38)">
<path d="M215.915 271.969C215.915 274.156 215.391 275.934 214.343 277.301C213.295 278.622 211.813 279.693 209.899 280.514C208.304 281.197 206.299 281.744 203.884 282.154C201.468 282.519 198.962 282.792 196.364 282.975C193.767 283.111 191.215 283.202 188.708 283.248C186.201 283.294 184.105 283.316 182.419 283.316C179.548 283.316 176.7 283.271 173.874 283.18C171.094 283.089 168.269 282.952 165.397 282.77C165.534 278.121 165.397 273.518 164.987 268.961C168.405 269.052 171.8 269.143 175.173 269.234C178.591 269.28 182.009 269.348 185.427 269.439C186.748 269.485 188.07 269.531 189.392 269.576C190.759 269.622 192.126 269.645 193.493 269.645C193.721 269.645 194.063 269.645 194.519 269.645C194.974 269.645 195.453 269.622 195.954 269.576C196.455 269.531 196.911 269.462 197.321 269.371C197.777 269.28 198.119 269.143 198.347 268.961C198.529 268.779 198.643 268.528 198.688 268.209C198.734 267.844 198.757 267.525 198.757 267.252C198.757 266.751 198.688 266.158 198.552 265.475C198.415 264.745 198.21 264.153 197.937 263.697C197.891 263.652 197.731 263.606 197.458 263.561C197.23 263.515 196.957 263.492 196.638 263.492C196.319 263.447 196.022 263.424 195.749 263.424C195.476 263.378 195.316 263.355 195.271 263.355C192.354 263.128 189.437 262.968 186.521 262.877C183.649 262.786 180.756 262.626 177.839 262.398C176.517 262.262 175.15 262.125 173.737 261.988C172.37 261.852 171.094 261.601 169.909 261.236C168.77 260.917 167.79 260.211 166.97 259.117C166.195 257.978 165.557 256.702 165.056 255.289C164.6 253.831 164.258 252.372 164.03 250.914C163.848 249.456 163.757 248.225 163.757 247.223C163.757 245.582 163.916 244.033 164.235 242.574C164.554 241.07 165.056 239.68 165.739 238.404C166.468 237.128 167.38 236.012 168.474 235.055C169.567 234.052 170.912 233.232 172.507 232.594C175.241 231.546 178.158 230.816 181.257 230.406C184.401 229.996 187.409 229.791 190.28 229.791C193.653 229.791 196.979 229.996 200.261 230.406C203.542 230.816 206.823 231.34 210.104 231.979C210.059 233.3 210.013 234.622 209.968 235.943C209.968 237.219 209.968 238.518 209.968 239.84C209.968 241.161 210.036 242.506 210.173 243.873C210.31 245.195 210.446 246.516 210.583 247.838C206.254 247.929 201.924 248.02 197.595 248.111C193.311 248.157 188.981 248.271 184.606 248.453C184.06 248.453 183.308 248.476 182.351 248.521C181.439 248.567 180.55 248.635 179.685 248.727C178.819 248.772 178.067 248.818 177.429 248.863C176.791 248.909 176.472 248.932 176.472 248.932C176.244 249.433 176.107 249.957 176.062 250.504C176.016 251.005 175.993 251.529 175.993 252.076C175.993 252.35 175.993 252.691 175.993 253.102C176.039 253.512 176.153 253.831 176.335 254.059C176.381 254.104 176.768 254.173 177.497 254.264C178.226 254.355 179.024 254.446 179.89 254.537C180.801 254.628 181.644 254.719 182.419 254.811C183.239 254.902 183.741 254.947 183.923 254.947C185.427 255.084 187.181 255.243 189.187 255.426C191.237 255.608 193.311 255.813 195.407 256.041C197.549 256.269 199.6 256.565 201.56 256.93C203.519 257.249 205.228 257.636 206.687 258.092C208.008 258.548 209.216 259.277 210.31 260.279C211.449 261.236 212.429 262.376 213.249 263.697C214.069 264.973 214.707 266.34 215.163 267.799C215.664 269.212 215.915 270.602 215.915 271.969ZM261.511 242.369C257.045 242.597 252.601 242.848 248.181 243.121C243.806 243.349 239.385 243.645 234.919 244.01L234.782 249.41L252.419 248.385C252.647 249.934 252.806 251.461 252.897 252.965C253.034 254.469 253.103 255.995 253.103 257.545C253.103 258.183 253.08 258.844 253.034 259.527C253.034 260.211 253.034 260.872 253.034 261.51L236.628 264.449L237.653 272.926C241.117 272.698 244.558 272.379 247.976 271.969C251.439 271.513 254.925 271.126 258.435 270.807C258.754 273.085 259.073 275.387 259.392 277.711C259.711 279.99 260.166 282.223 260.759 284.41C254.287 284.365 247.862 284.365 241.481 284.41C235.101 284.501 228.675 284.547 222.204 284.547C222.341 279.215 222.5 273.906 222.683 268.619C222.865 263.333 222.956 258.001 222.956 252.623V251.324C222.956 248.225 222.91 245.149 222.819 242.096C222.728 238.997 222.637 235.875 222.546 232.73C226.146 232.776 229.724 232.799 233.278 232.799C236.879 232.753 240.502 232.73 244.147 232.73C246.927 232.73 249.685 232.799 252.419 232.936C255.199 233.027 257.979 233.141 260.759 233.277L261.511 242.369ZM300.681 282.291C295.257 282.701 289.857 283.089 284.479 283.453C279.147 283.818 273.77 284.16 268.347 284.479C268.119 275.774 267.937 267.138 267.8 258.57C267.663 249.957 267.412 241.275 267.048 232.525C270.101 232.48 273.109 232.389 276.071 232.252C279.034 232.115 282.019 231.933 285.026 231.705C284.525 235.077 284.047 238.473 283.591 241.891C283.181 245.263 282.862 248.658 282.634 252.076C282.451 254.947 282.292 257.818 282.155 260.689C282.064 263.515 281.973 266.363 281.882 269.234C284.89 269.326 287.852 269.371 290.769 269.371C293.731 269.371 296.693 269.417 299.655 269.508L300.681 282.291ZM345.524 242.369C341.058 242.597 336.615 242.848 332.194 243.121C327.819 243.349 323.399 243.645 318.933 244.01L318.796 249.41L336.433 248.385C336.66 249.934 336.82 251.461 336.911 252.965C337.048 254.469 337.116 255.995 337.116 257.545C337.116 258.183 337.093 258.844 337.048 259.527C337.048 260.211 337.048 260.872 337.048 261.51L320.642 264.449L321.667 272.926C325.131 272.698 328.571 272.379 331.989 271.969C335.453 271.513 338.939 271.126 342.448 270.807C342.767 273.085 343.086 275.387 343.405 277.711C343.724 279.99 344.18 282.223 344.772 284.41C338.301 284.365 331.875 284.365 325.495 284.41C319.115 284.501 312.689 284.547 306.218 284.547C306.354 279.215 306.514 273.906 306.696 268.619C306.879 263.333 306.97 258.001 306.97 252.623V251.324C306.97 248.225 306.924 245.149 306.833 242.096C306.742 238.997 306.651 235.875 306.56 232.73C310.16 232.776 313.737 232.799 317.292 232.799C320.892 232.753 324.515 232.73 328.161 232.73C330.941 232.73 333.698 232.799 336.433 232.936C339.213 233.027 341.993 233.141 344.772 233.277L345.524 242.369ZM395.222 267.799L395.153 278.463C393.057 278.873 390.983 279.26 388.933 279.625C386.882 279.99 384.808 280.309 382.712 280.582C380.524 280.855 378.337 281.106 376.149 281.334C373.962 281.562 371.774 281.676 369.587 281.676C368.949 281.676 368.015 281.653 366.784 281.607C365.554 281.562 364.278 281.471 362.956 281.334C361.634 281.197 360.381 281.038 359.196 280.855C358.011 280.628 357.146 280.354 356.599 280.035C356.097 279.716 355.619 279.352 355.163 278.941C354.707 278.486 354.297 278.03 353.933 277.574C352.976 276.389 352.178 275.09 351.54 273.678C350.902 272.265 350.401 270.807 350.036 269.303C349.672 267.799 349.398 266.272 349.216 264.723C349.079 263.173 349.011 261.646 349.011 260.143C349.011 258.32 349.102 256.428 349.284 254.469C349.512 252.509 349.854 250.572 350.31 248.658C350.765 246.744 351.358 244.898 352.087 243.121C352.862 241.344 353.796 239.703 354.89 238.199C355.209 237.789 355.619 237.288 356.12 236.695C356.621 236.103 357.123 235.67 357.624 235.396C358.854 234.713 360.222 234.143 361.726 233.688C363.275 233.232 364.87 232.89 366.511 232.662C368.151 232.389 369.769 232.206 371.364 232.115C373.005 231.979 374.509 231.91 375.876 231.91C378.474 231.91 381.071 232.07 383.669 232.389C386.267 232.662 388.796 233.163 391.257 233.893C391.166 235.123 391.097 236.376 391.052 237.652C391.006 238.883 390.983 240.113 390.983 241.344C390.983 244.306 391.052 247.291 391.188 250.299C389.138 249.524 386.996 248.977 384.763 248.658C382.53 248.294 380.319 248.111 378.132 248.111C377.676 248.111 377.015 248.157 376.149 248.248C375.284 248.294 374.304 248.385 373.21 248.521C372.116 248.613 370.977 248.749 369.792 248.932C368.653 249.114 367.582 249.342 366.579 249.615C365.576 249.889 364.688 250.208 363.913 250.572C363.184 250.937 362.705 251.324 362.478 251.734C362.295 252.099 362.136 252.623 361.999 253.307C361.908 253.945 361.817 254.628 361.726 255.357C361.68 256.087 361.634 256.793 361.589 257.477C361.589 258.16 361.589 258.707 361.589 259.117C361.589 259.527 361.634 260.348 361.726 261.578C361.817 262.809 361.931 264.13 362.067 265.543C362.204 266.91 362.364 268.163 362.546 269.303C362.774 270.442 363.002 271.103 363.229 271.285C363.457 271.422 363.822 271.513 364.323 271.559C364.87 271.559 365.235 271.559 365.417 271.559C367.65 271.559 370.043 271.445 372.595 271.217C375.147 270.989 377.722 270.693 380.319 270.328C382.963 269.918 385.56 269.508 388.112 269.098C390.664 268.642 393.034 268.209 395.222 267.799ZM439.929 244.215V249L426.735 249.684C426.553 252.327 426.416 254.947 426.325 257.545C426.234 260.143 426.188 262.74 426.188 265.338C426.188 268.528 426.097 271.718 425.915 274.908C425.778 278.053 425.596 281.197 425.368 284.342C423.728 284.433 422.087 284.501 420.446 284.547C418.806 284.638 417.165 284.684 415.524 284.684C414.932 284.684 414.34 284.661 413.747 284.615C413.2 284.615 412.653 284.615 412.106 284.615C412.198 281.835 412.266 279.078 412.312 276.344C412.403 273.564 412.448 270.807 412.448 268.072C412.448 265.338 412.38 262.604 412.243 259.869C412.106 257.089 411.947 254.309 411.765 251.529C410.443 251.575 409.099 251.62 407.731 251.666C406.41 251.712 405.065 251.734 403.698 251.734C402.924 251.734 402.149 251.734 401.374 251.734C400.645 251.734 399.893 251.712 399.118 251.666C398.981 248.294 398.89 244.944 398.845 241.617C398.799 238.29 398.754 234.964 398.708 231.637C405.544 231.773 412.334 231.979 419.079 232.252C425.824 232.48 432.591 232.685 439.382 232.867C439.564 234.827 439.701 236.741 439.792 238.609C439.883 240.432 439.929 242.301 439.929 244.215ZM524.763 259.459C524.763 260.781 524.763 262.171 524.763 263.629C524.763 265.087 524.603 266.477 524.284 267.799C524.056 268.801 523.806 269.69 523.532 270.465C523.259 271.194 522.917 271.878 522.507 272.516C522.097 273.108 521.595 273.678 521.003 274.225C520.41 274.726 519.681 275.227 518.815 275.729C518.542 275.911 517.813 276.161 516.628 276.48C515.443 276.754 513.962 277.096 512.185 277.506C510.453 277.916 508.493 278.349 506.306 278.805C504.164 279.26 501.953 279.716 499.675 280.172C497.442 280.582 495.209 281.015 492.976 281.471C490.788 281.881 488.783 282.268 486.96 282.633C485.183 282.952 483.656 283.248 482.38 283.521C481.149 283.749 480.329 283.886 479.919 283.932C479.144 275.592 478.415 267.32 477.731 259.117C477.048 250.914 476.524 242.62 476.159 234.234C479.987 234.371 483.793 234.531 487.575 234.713C491.358 234.85 495.186 235.055 499.06 235.328C500.062 235.419 501.521 235.533 503.435 235.67C505.394 235.807 507.422 236.012 509.519 236.285C511.615 236.513 513.575 236.809 515.397 237.174C517.266 237.538 518.61 237.994 519.431 238.541C520.479 239.316 521.413 240.364 522.233 241.686C523.054 243.007 523.646 244.306 524.011 245.582C524.193 246.174 524.33 247.109 524.421 248.385C524.512 249.615 524.58 250.937 524.626 252.35C524.672 253.762 524.694 255.13 524.694 256.451C524.74 257.773 524.763 258.775 524.763 259.459ZM507.741 260.348C507.741 259.846 507.718 259.322 507.673 258.775C507.673 258.183 507.65 257.636 507.604 257.135C507.513 256.406 507.377 255.654 507.194 254.879C507.058 254.059 506.853 253.284 506.579 252.555C506.306 251.78 505.964 251.074 505.554 250.436C505.144 249.752 504.642 249.16 504.05 248.658C503.731 248.385 502.956 248.18 501.726 248.043C500.495 247.861 499.151 247.747 497.692 247.701C496.234 247.61 494.867 247.564 493.591 247.564C492.315 247.519 491.494 247.496 491.13 247.496H488.327C488.692 251.051 489.011 254.56 489.284 258.023C489.603 261.441 489.877 264.928 490.104 268.482C490.97 268.437 492.201 268.323 493.796 268.141C495.437 267.913 497.1 267.639 498.786 267.32C500.472 266.956 502.045 266.523 503.503 266.021C504.961 265.475 506.009 264.837 506.647 264.107C507.149 263.561 507.445 262.991 507.536 262.398C507.673 261.76 507.741 261.077 507.741 260.348ZM560.788 233.824C560.56 236.604 560.469 239.384 560.515 242.164C560.56 244.898 560.537 247.633 560.446 250.367L552.858 250.094C552.813 251.689 552.767 253.261 552.722 254.811C552.722 256.36 552.722 257.932 552.722 259.527C552.722 261.441 552.722 263.333 552.722 265.201C552.767 267.024 552.813 268.893 552.858 270.807L559.831 270.943C559.74 272.265 559.694 273.609 559.694 274.977C559.694 276.344 559.694 277.711 559.694 279.078C559.694 280.217 559.717 281.357 559.763 282.496C559.854 283.635 560.013 284.752 560.241 285.846L535.7 286.256C535.7 284.023 535.677 281.835 535.632 279.693C535.586 277.506 535.495 275.296 535.358 273.062L539.802 272.994C539.574 268.71 539.3 264.472 538.981 260.279C538.708 256.087 538.412 251.871 538.093 247.633L531.599 246.812C531.507 244.898 531.416 243.007 531.325 241.139C531.28 239.225 531.211 237.311 531.12 235.396C536.088 235.214 541.009 235.009 545.886 234.781C550.808 234.508 555.775 234.189 560.788 233.824ZM608.571 247.975C604.606 248.202 600.687 248.385 596.813 248.521C592.985 248.658 589.112 248.909 585.192 249.273L585.739 255.152L597.087 255.904L599.001 262.74C596.95 263.196 594.877 263.561 592.78 263.834C590.729 264.062 588.679 264.381 586.628 264.791C587.084 268.209 587.403 271.627 587.585 275.045C587.767 278.417 587.858 281.812 587.858 285.23L569.88 285.846C570.108 280.514 570.244 275.227 570.29 269.986C570.336 264.7 570.358 259.391 570.358 254.059V247.975V234.234C573.002 234.189 575.599 234.143 578.151 234.098C580.749 234.007 583.369 233.961 586.013 233.961C589.567 233.961 593.122 234.052 596.677 234.234C600.231 234.371 603.809 234.531 607.409 234.713C607.683 236.9 607.933 239.111 608.161 241.344C608.435 243.531 608.571 245.742 608.571 247.975ZM654.646 247.975C650.681 248.202 646.761 248.385 642.888 248.521C639.06 248.658 635.186 248.909 631.267 249.273L631.813 255.152L643.161 255.904L645.075 262.74C643.024 263.196 640.951 263.561 638.854 263.834C636.804 264.062 634.753 264.381 632.702 264.791C633.158 268.209 633.477 271.627 633.659 275.045C633.841 278.417 633.933 281.812 633.933 285.23L615.954 285.846C616.182 280.514 616.319 275.227 616.364 269.986C616.41 264.7 616.433 259.391 616.433 254.059V247.975V234.234C619.076 234.189 621.674 234.143 624.226 234.098C626.823 234.007 629.444 233.961 632.087 233.961C635.642 233.961 639.196 234.052 642.751 234.234C646.306 234.371 649.883 234.531 653.483 234.713C653.757 236.9 654.007 239.111 654.235 241.344C654.509 243.531 654.646 245.742 654.646 247.975ZM688.552 233.824C688.324 236.604 688.233 239.384 688.278 242.164C688.324 244.898 688.301 247.633 688.21 250.367L680.622 250.094C680.576 251.689 680.531 253.261 680.485 254.811C680.485 256.36 680.485 257.932 680.485 259.527C680.485 261.441 680.485 263.333 680.485 265.201C680.531 267.024 680.576 268.893 680.622 270.807L687.595 270.943C687.504 272.265 687.458 273.609 687.458 274.977C687.458 276.344 687.458 277.711 687.458 279.078C687.458 280.217 687.481 281.357 687.526 282.496C687.618 283.635 687.777 284.752 688.005 285.846L663.464 286.256C663.464 284.023 663.441 281.835 663.396 279.693C663.35 277.506 663.259 275.296 663.122 273.062L667.565 272.994C667.338 268.71 667.064 264.472 666.745 260.279C666.472 256.087 666.175 251.871 665.856 247.633L659.362 246.812C659.271 244.898 659.18 243.007 659.089 241.139C659.043 239.225 658.975 237.311 658.884 235.396C663.851 235.214 668.773 235.009 673.649 234.781C678.571 234.508 683.539 234.189 688.552 233.824ZM741.052 267.799L740.983 278.463C738.887 278.873 736.813 279.26 734.763 279.625C732.712 279.99 730.638 280.309 728.542 280.582C726.354 280.855 724.167 281.106 721.979 281.334C719.792 281.562 717.604 281.676 715.417 281.676C714.779 281.676 713.845 281.653 712.614 281.607C711.384 281.562 710.108 281.471 708.786 281.334C707.465 281.197 706.211 281.038 705.026 280.855C703.841 280.628 702.976 280.354 702.429 280.035C701.927 279.716 701.449 279.352 700.993 278.941C700.537 278.486 700.127 278.03 699.763 277.574C698.806 276.389 698.008 275.09 697.37 273.678C696.732 272.265 696.231 270.807 695.866 269.303C695.502 267.799 695.228 266.272 695.046 264.723C694.909 263.173 694.841 261.646 694.841 260.143C694.841 258.32 694.932 256.428 695.114 254.469C695.342 252.509 695.684 250.572 696.14 248.658C696.595 246.744 697.188 244.898 697.917 243.121C698.692 241.344 699.626 239.703 700.72 238.199C701.039 237.789 701.449 237.288 701.95 236.695C702.451 236.103 702.953 235.67 703.454 235.396C704.685 234.713 706.052 234.143 707.556 233.688C709.105 233.232 710.7 232.89 712.341 232.662C713.981 232.389 715.599 232.206 717.194 232.115C718.835 231.979 720.339 231.91 721.706 231.91C724.304 231.91 726.901 232.07 729.499 232.389C732.097 232.662 734.626 233.163 737.087 233.893C736.996 235.123 736.927 236.376 736.882 237.652C736.836 238.883 736.813 240.113 736.813 241.344C736.813 244.306 736.882 247.291 737.019 250.299C734.968 249.524 732.826 248.977 730.593 248.658C728.36 248.294 726.149 248.111 723.962 248.111C723.506 248.111 722.845 248.157 721.979 248.248C721.114 248.294 720.134 248.385 719.04 248.521C717.946 248.613 716.807 248.749 715.622 248.932C714.483 249.114 713.412 249.342 712.409 249.615C711.407 249.889 710.518 250.208 709.743 250.572C709.014 250.937 708.535 251.324 708.308 251.734C708.125 252.099 707.966 252.623 707.829 253.307C707.738 253.945 707.647 254.628 707.556 255.357C707.51 256.087 707.465 256.793 707.419 257.477C707.419 258.16 707.419 258.707 707.419 259.117C707.419 259.527 707.465 260.348 707.556 261.578C707.647 262.809 707.761 264.13 707.897 265.543C708.034 266.91 708.194 268.163 708.376 269.303C708.604 270.442 708.832 271.103 709.06 271.285C709.287 271.422 709.652 271.513 710.153 271.559C710.7 271.559 711.065 271.559 711.247 271.559C713.48 271.559 715.873 271.445 718.425 271.217C720.977 270.989 723.552 270.693 726.149 270.328C728.793 269.918 731.39 269.508 733.942 269.098C736.494 268.642 738.864 268.209 741.052 267.799ZM798.337 261.441C798.337 264.039 798.269 266.614 798.132 269.166C798.041 271.718 797.813 274.293 797.448 276.891C796.719 277.438 795.99 277.962 795.261 278.463C794.532 278.919 793.78 279.42 793.005 279.967C792.367 280.377 791.66 280.855 790.886 281.402C790.157 281.904 789.382 282.405 788.562 282.906C787.741 283.408 786.898 283.84 786.032 284.205C785.212 284.615 784.437 284.889 783.708 285.025C783.024 285.208 782.113 285.276 780.974 285.23C779.834 285.23 778.877 285.23 778.103 285.23C776.188 285.322 774.274 285.39 772.36 285.436C770.446 285.481 768.487 285.504 766.481 285.504C765.57 285.504 764.522 285.504 763.337 285.504C762.152 285.549 761.081 285.458 760.124 285.23C759.851 285.185 759.395 284.957 758.757 284.547C758.119 284.182 757.39 283.727 756.569 283.18C755.795 282.587 754.974 281.972 754.108 281.334C753.243 280.65 752.399 280.012 751.579 279.42C750.804 278.782 750.121 278.235 749.528 277.779C748.981 277.278 748.594 276.936 748.366 276.754C748.138 274.339 747.956 271.946 747.819 269.576C747.728 267.161 747.683 264.745 747.683 262.33C747.683 257.636 747.842 252.988 748.161 248.385C748.526 243.782 748.913 239.156 749.323 234.508L763.405 234.166C762.95 237.083 762.631 240.182 762.448 243.463C762.266 246.699 762.175 249.82 762.175 252.828C762.175 253.329 762.198 254.218 762.243 255.494C762.289 256.725 762.38 258.046 762.517 259.459C762.653 260.872 762.813 262.171 762.995 263.355C763.223 264.54 763.496 265.315 763.815 265.68C763.952 265.816 764.294 265.953 764.841 266.09C765.433 266.181 766.117 266.272 766.892 266.363C767.712 266.454 768.578 266.523 769.489 266.568C770.401 266.614 771.267 266.66 772.087 266.705C772.907 266.705 773.636 266.728 774.274 266.773C774.912 266.773 775.368 266.773 775.642 266.773C775.869 266.773 776.257 266.773 776.804 266.773C777.351 266.773 777.897 266.773 778.444 266.773C779.037 266.728 779.584 266.682 780.085 266.637C780.586 266.591 780.928 266.5 781.11 266.363C781.657 265.999 782.067 265.11 782.341 263.697C782.614 262.285 782.819 260.735 782.956 259.049C783.093 257.363 783.161 255.745 783.161 254.195C783.161 252.646 783.161 251.529 783.161 250.846C783.161 249.798 783.161 248.749 783.161 247.701C783.207 246.653 783.229 245.605 783.229 244.557C783.229 242.415 783.207 240.318 783.161 238.268C783.116 236.171 783.047 234.052 782.956 231.91C783.913 232.001 784.847 232.07 785.759 232.115C786.716 232.115 787.673 232.115 788.63 232.115C789.769 232.115 790.886 232.092 791.979 232.047C793.119 232.001 794.235 231.865 795.329 231.637C796.286 236.513 797.015 241.458 797.517 246.471C798.063 251.438 798.337 256.428 798.337 261.441ZM841.062 282.291C835.638 282.701 830.238 283.089 824.86 283.453C819.528 283.818 814.151 284.16 808.728 284.479C808.5 275.774 808.317 267.138 808.181 258.57C808.044 249.957 807.793 241.275 807.429 232.525C810.482 232.48 813.49 232.389 816.452 232.252C819.414 232.115 822.399 231.933 825.407 231.705C824.906 235.077 824.427 238.473 823.972 241.891C823.562 245.263 823.243 248.658 823.015 252.076C822.832 254.947 822.673 257.818 822.536 260.689C822.445 263.515 822.354 266.363 822.263 269.234C825.271 269.326 828.233 269.371 831.149 269.371C834.112 269.371 837.074 269.417 840.036 269.508L841.062 282.291ZM882.282 244.215V249L869.089 249.684C868.907 252.327 868.77 254.947 868.679 257.545C868.588 260.143 868.542 262.74 868.542 265.338C868.542 268.528 868.451 271.718 868.269 274.908C868.132 278.053 867.95 281.197 867.722 284.342C866.081 284.433 864.44 284.501 862.8 284.547C861.159 284.638 859.519 284.684 857.878 284.684C857.285 284.684 856.693 284.661 856.101 284.615C855.554 284.615 855.007 284.615 854.46 284.615C854.551 281.835 854.619 279.078 854.665 276.344C854.756 273.564 854.802 270.807 854.802 268.072C854.802 265.338 854.733 262.604 854.597 259.869C854.46 257.089 854.3 254.309 854.118 251.529C852.797 251.575 851.452 251.62 850.085 251.666C848.763 251.712 847.419 251.734 846.052 251.734C845.277 251.734 844.502 251.734 843.728 251.734C842.998 251.734 842.246 251.712 841.472 251.666C841.335 248.294 841.244 244.944 841.198 241.617C841.153 238.29 841.107 234.964 841.062 231.637C847.897 231.773 854.688 231.979 861.433 232.252C868.177 232.48 874.945 232.685 881.735 232.867C881.918 234.827 882.054 236.741 882.146 238.609C882.237 240.432 882.282 242.301 882.282 244.215ZM936.901 266.979C936.901 268.619 936.651 270.351 936.149 272.174C935.648 273.951 934.919 275.637 933.962 277.232C933.005 278.782 931.82 280.149 930.407 281.334C929.04 282.473 927.491 283.225 925.759 283.59C925.075 283.727 924.255 283.84 923.298 283.932C922.386 284.023 921.429 284.091 920.427 284.137C919.424 284.182 918.422 284.228 917.419 284.273C916.462 284.319 915.642 284.342 914.958 284.342C911.039 284.524 907.119 284.615 903.2 284.615C899.281 284.661 895.339 284.684 891.374 284.684C891.192 282.815 891.009 280.969 890.827 279.146C890.69 277.324 890.485 275.455 890.212 273.541C893.356 273.404 896.478 273.268 899.577 273.131C902.722 272.949 905.866 272.743 909.011 272.516C909.694 272.47 910.446 272.447 911.267 272.447C912.132 272.447 912.998 272.424 913.864 272.379C914.776 272.333 915.642 272.288 916.462 272.242C917.328 272.151 918.08 272.037 918.718 271.9C918.991 271.855 919.31 271.786 919.675 271.695C920.085 271.559 920.45 271.399 920.769 271.217C921.088 270.989 921.361 270.738 921.589 270.465C921.817 270.191 921.931 269.85 921.931 269.439C921.931 268.482 921.817 267.434 921.589 266.295C921.407 265.11 921.27 264.062 921.179 263.15C917.761 263.469 914.32 263.788 910.856 264.107C907.438 264.381 903.998 264.518 900.534 264.518C898.164 264.518 896.273 263.857 894.86 262.535C893.448 261.168 892.422 259.391 891.784 257.203C891.647 256.702 891.511 256.109 891.374 255.426C891.283 254.697 891.192 253.967 891.101 253.238C891.055 252.464 891.009 251.712 890.964 250.982C890.918 250.253 890.873 249.638 890.827 249.137C890.599 246.129 890.417 243.167 890.28 240.25C890.189 237.333 890.098 234.371 890.007 231.363C892.194 231.591 894.382 231.796 896.569 231.979C898.802 232.161 901.013 232.32 903.2 232.457C903.2 234.599 903.246 236.878 903.337 239.293C903.474 241.663 903.77 243.873 904.226 245.924C904.453 247.018 904.886 247.975 905.524 248.795C906.162 249.57 906.914 250.23 907.78 250.777C908.692 251.279 909.649 251.666 910.651 251.939C911.7 252.167 912.748 252.281 913.796 252.281C915.026 252.281 916.257 252.167 917.487 251.939C918.718 251.666 919.903 251.347 921.042 250.982C920.86 247.564 920.7 244.192 920.563 240.865C920.472 237.538 920.267 234.189 919.948 230.816C921.315 230.771 922.683 230.725 924.05 230.68C925.417 230.589 926.784 230.543 928.151 230.543C930.293 230.543 932.458 230.748 934.646 231.158C934.646 233.118 934.668 235.077 934.714 237.037C934.805 238.997 934.896 240.956 934.987 242.916C935.078 243.827 935.147 244.762 935.192 245.719C935.284 246.63 935.352 247.542 935.397 248.453C935.58 251.552 935.876 254.651 936.286 257.75C936.696 260.803 936.901 263.88 936.901 266.979Z" fill="white"/>
</g>
</g>
<defs>
<filter id="filter0_d_2686_38" x="0" y="4.00916" width="1101" height="777.991" filterUnits="userSpaceOnUse" color-interpolation-filters="sRGB">
<feFlood flood-opacity="0" result="BackgroundImageFix"/>
<feColorMatrix in="SourceAlpha" type="matrix" values="0 0 0 0 0 0 0 0 0 0 0 0 0 0 0 0 0 0 127 0" result="hardAlpha"/>
<feOffset dy="4"/>
<feGaussianBlur stdDeviation="2"/>
<feComposite in2="hardAlpha" operator="out"/>
<feColorMatrix type="matrix" values="0 0 0 0 0 0 0 0 0 0 0 0 0 0 0 0 0 0 0.25 0"/>
<feBlend mode="normal" in2="BackgroundImageFix" result="effect1_dropShadow_2686_38"/>
<feBlend mode="normal" in="SourceGraphic" in2="effect1_dropShadow_2686_38" result="shape"/>
</filter>
<filter id="filter1_i_2686_38" x="50" y="109" width="996" height="600" filterUnits="userSpaceOnUse" color-interpolation-filters="sRGB">
<feFlood flood-opacity="0" result="BackgroundImageFix"/>
<feBlend mode="normal" in="SourceGraphic" in2="BackgroundImageFix" result="shape"/>
<feColorMatrix in="SourceAlpha" type="matrix" values="0 0 0 0 0 0 0 0 0 0 0 0 0 0 0 0 0 0 127 0" result="hardAlpha"/>
<feOffset dy="4"/>
<feGaussianBlur stdDeviation="2.5"/>
<feComposite in2="hardAlpha" operator="arithmetic" k2="-1" k3="1"/>
<feColorMatrix type="matrix" values="0 0 0 0 0 0 0 0 0 0 0 0 0 0 0 0 0 0 0.56 0"/>
<feBlend mode="normal" in2="shape" result="effect1_innerShadow_2686_38"/>
</filter>
<filter id="filter2_d_2686_38" x="353.989" y="0.00915527" width="407.01" height="216.992" filterUnits="userSpaceOnUse" color-interpolation-filters="sRGB">
<feFlood flood-opacity="0" result="BackgroundImageFix"/>
<feColorMatrix in="SourceAlpha" type="matrix" values="0 0 0 0 0 0 0 0 0 0 0 0 0 0 0 0 0 0 127 0" result="hardAlpha"/>
<feOffset dx="3" dy="6"/>
<feGaussianBlur stdDeviation="5"/>
<feComposite in2="hardAlpha" operator="out"/>
<feColorMatrix type="matrix" values="0 0 0 0 0 0 0 0 0 0 0 0 0 0 0 0 0 0 0.38 0"/>
<feBlend mode="normal" in2="BackgroundImageFix" result="effect1_dropShadow_2686_38"/>
<feBlend mode="normal" in="SourceGraphic" in2="effect1_dropShadow_2686_38" result="shape"/>
</filter>
<filter id="filter3_d_2686_38" x="159.757" y="229.791" width="781.145" height="64.4648" filterUnits="userSpaceOnUse" color-interpolation-filters="sRGB">
<feFlood flood-opacity="0" result="BackgroundImageFix"/>
<feColorMatrix in="SourceAlpha" type="matrix" values="0 0 0 0 0 0 0 0 0 0 0 0 0 0 0 0 0 0 127 0" result="hardAlpha"/>
<feOffset dy="4"/>
<feGaussianBlur stdDeviation="2"/>
<feComposite in2="hardAlpha" operator="out"/>
<feColorMatrix type="matrix" values="0 0 0 0 0 0 0 0 0 0 0 0 0 0 0 0 0 0 0.42 0"/>
<feBlend mode="normal" in2="BackgroundImageFix" result="effect1_dropShadow_2686_38"/>
<feBlend mode="normal" in="SourceGraphic" in2="effect1_dropShadow_2686_38" result="shape"/>
</filter>
</defs>
</svg>
