<svg width="74" height="18" viewBox="0 0 74 18" fill="none" xmlns="http://www.w3.org/2000/svg">
<path d="M0.33114 3.73116C0.447306 2.23359 1.6803 1.06823 3.18204 1.03665L26.5905 0.544332C27.6038 0.523021 28.6166 0.60446 29.6135 0.787399L52.6016 5.00611C53.3574 5.14482 54.0288 5.57415 54.4718 6.20206C55.8639 8.17518 54.4133 10.8919 51.9992 10.8327L29.3593 10.2774L2.86908 6.85405C1.32664 6.65472 0.210859 5.28177 0.33114 3.73116Z" fill="white" fill-opacity="0.35"/>
<path d="M61.8696 10.4105C62.6304 8.52693 64.7741 7.61679 66.6577 8.37763L71.1986 10.2119C73.0822 10.9727 73.9923 13.1164 73.2315 15C72.4707 16.8836 70.3269 17.7937 68.4434 17.0329L63.9024 15.1986C62.0189 14.4378 61.1087 12.294 61.8696 10.4105Z" fill="white" fill-opacity="0.35"/>
</svg>
